<?xml version="1.0" encoding="utf-8"?>
<!-- Generator: Adobe Illustrator 24.1.3, SVG Export Plug-In . SVG Version: 6.00 Build 0)  -->
<svg version="1.1" id="Layer_1" xmlns="http://www.w3.org/2000/svg" xmlns:xlink="http://www.w3.org/1999/xlink" x="0px" y="0px"
	 viewBox="0 0 302.6 65.1" style="enable-background:new 0 0 302.6 65.1;" xml:space="preserve">
<style type="text/css">
	.st0{fill:none;stroke:#231F20;stroke-width:0.75;stroke-miterlimit:10;}
	.st1{fill:#231F20;}
</style>
<g id="Layer_2_1_">
	<g id="Layer_1-2">
		<path class="st0" d="M0.1,42.9c24.2,7.6,80.5,22.8,156.4,21.6c70.5-1.1,122.1-15.7,146-23.6"/>
		<path class="st1" d="M156,41.8c-1.8,0.2-3.4,1.1-4.4,2.6c-1,1.4-1.5,3.9,0.1,5c0.8,0.4,1.7,0.6,2.6,0.6c0.9,0.1,1.8,0,2.6-0.2
			c1.8-0.4,3-2,2.9-3.9c-0.2-2.3-1.9-3.8-3.8-4.9c-0.3-0.2-0.7,0-0.8,0.3c-0.1,0.3,0,0.6,0.2,0.8c1.4,0.6,2.5,1.8,3.1,3.2
			c0.5,1.2-0.1,2.6-1.4,3.1c-0.6,0.2-1.3,0.3-2,0.3c-0.7,0-1.4,0-2.1-0.1c-0.7-0.1-1.1-0.7-1.1-1.3c0-0.7,0.2-1.3,0.5-1.9
			c0.7-1.3,2-2.2,3.5-2.4c0.3,0,0.6-0.3,0.6-0.6C156.6,42.1,156.3,41.9,156,41.8L156,41.8z"/>
		<path class="st1" d="M154.2,45.6c0.3,0,0.6-0.4,0.5-0.7c0-0.3-0.3-0.5-0.5-0.5c-0.3,0-0.6,0.4-0.5,0.7
			C153.7,45.3,154,45.5,154.2,45.6z"/>
		<path class="st1" d="M156.3,45.8c0.3,0,0.6-0.4,0.5-0.7c0-0.3-0.3-0.5-0.5-0.5c-0.3,0-0.6,0.4-0.5,0.7
			C155.8,45.6,156,45.8,156.3,45.8z"/>
		<path class="st1" d="M154.5,46.9c0,1.4,0.1,2.7,0.3,4.1l0.9-3c0.1-0.3,0.1-0.7,0-1.1C155.6,46.6,154.6,46.6,154.5,46.9"/>
		<path class="st1" d="M153.9,46.9c0,1.4,0.1,2.9,0.3,4.3c0.1,0.3,0.3,0.5,0.6,0.5c0.3,0,0.5-0.2,0.6-0.5l0.6-2
			c0.1-0.3,0.2-0.7,0.3-1c0.1-0.3,0.2-0.6,0.1-1c0-0.4-0.2-0.7-0.5-0.9c-0.2-0.1-0.5-0.2-0.7-0.2c-0.5-0.1-1,0.1-1.3,0.6
			c-0.2,0.3-0.1,0.7,0.2,0.8c0.3,0.2,0.7,0.1,0.9-0.2c0-0.1-0.1,0.1,0,0s-0.1,0.1,0,0s-0.1,0,0,0h0.1c0.1,0-0.1,0,0,0h0.2
			c0,0-0.1,0,0,0h0.1l0,0c0.1,0-0.1-0.1-0.1-0.1l0,0c0,0.2,0-0.1,0,0.1s0,0.1,0,0.1s0,0.1,0,0.1s0,0.1,0,0.2c-0.3,1-0.6,2.1-0.9,3.1
			h1.2c-0.2-1.3-0.3-2.6-0.3-3.9c0-0.3-0.3-0.6-0.6-0.6c-0.3,0-0.6,0.3-0.6,0.6L153.9,46.9z"/>
		<path class="st1" d="M152.1,48.5c-2.4,0.5-3.9,2.8-4.2,5.1c-0.2,1.1-0.4,2.7,0.2,3.8c0.4,0.5,0.8,0.9,1.3,1.3
			c0.5,0.4,1,0.8,1.5,1.2c1.1,0.8,2.4,1.2,3.8,1.1c1.4,0.1,2.8-0.1,4.1-0.5c2.1-0.8,3-3,3.3-5.1c0.3-1.4,0.1-2.8-0.6-4
			c-0.8-1-1.9-1.8-3.1-2.3c-0.7-0.4-1.4,0.7-0.6,1.1c0.9,0.3,1.6,0.8,2.3,1.4c0.7,0.8,1,1.8,0.9,2.9c-0.1,1.6-0.6,3.5-2,4.5
			c-0.9,0.5-2,0.7-3,0.7c-1.2,0.1-2.3,0-3.4-0.4c-0.9-0.4-1.7-1-2.5-1.8c-0.4-0.3-0.8-0.7-1-1.1c-0.1-0.6-0.1-1.1,0-1.7
			c0.1-2.2,1.1-4.6,3.4-5.1C153.2,49.5,152.9,48.3,152.1,48.5L152.1,48.5z"/>
		<path class="st1" d="M152.8,48.8c-1.4-0.1-2.7,0.5-3.5,1.6c-0.7,0.9-1.1,1.9-1.3,2.9c-0.3,1-0.4,2-0.2,3c0.1,0.6,0.7,1,1.3,0.9
			c0.2,0,0.3-0.1,0.4-0.2c1-0.7,1.7-1.6,2.3-2.7c1-1.5,1.5-3.2,1.6-5C153.4,49,153.1,48.8,152.8,48.8c-0.3,0.1-0.6,0.3-0.6,0.6
			c0,1.3-0.4,2.5-1,3.7c-0.2,0.4-0.5,0.8-0.7,1.2c-0.3,0.4-0.6,0.8-1,1.2c-0.1,0.2-0.3,0.3-0.5,0.4l-0.1,0.1c0,0-0.1,0.1-0.1,0
			s-0.1,0,0,0h0.2c0,0-0.1-0.9-0.1-1.1c0-0.4,0.1-0.9,0.2-1.3c0.1-0.3,0.1-0.6,0.2-0.9c0-0.1,0-0.1,0.1-0.2v-0.1c0,0,0-0.1,0-0.1
			c0,0.1,0,0.1,0,0c0.2-0.4,0.4-0.8,0.6-1.1c0.6-0.9,1.6-1.4,2.7-1.3c0.3,0,0.6-0.3,0.6-0.6c0-0.3-0.3-0.6-0.6-0.6L152.8,48.8z"/>
		<path class="st1" d="M152.8,50.1c0.3,0,0.6-0.4,0.5-0.7c0-0.3-0.3-0.5-0.5-0.5c-0.3,0-0.6,0.4-0.5,0.7
			C152.3,49.8,152.5,50,152.8,50.1z"/>
		<path class="st1" d="M152.8,50.1c0.3,0,0.6-0.4,0.5-0.7c0-0.3-0.3-0.5-0.5-0.5c-0.3,0-0.6,0.4-0.5,0.7
			C152.3,49.8,152.5,50,152.8,50.1z"/>
		<path class="st1" d="M159.6,49.9c-0.7-0.6-1.7-0.7-2.4-0.1c-0.4,0.5-0.4,1.3-0.3,1.9c0.1,0.8,0.3,1.6,0.6,2.3
			c0.3,0.5,0.6,1,0.9,1.5c0.4,0.5,0.8,1.1,1.2,1.5s0.8,0.8,1.3,0.6s0.7-0.8,0.8-1.3c0.3-0.9,0.4-1.8,0.4-2.7c-0.1-0.8-0.5-1.5-1-2.1
			c-0.5-0.6-1-1.2-1.7-1.7c-0.3-0.2-0.7-0.1-0.9,0.2c-0.2,0.3-0.1,0.7,0.2,0.9c0.8,0.6,1.5,1.4,1.9,2.3c0.2,0.5,0.2,1.1,0,1.6
			c-0.1,0.6-0.2,1.1-0.4,1.7c0,0,0,0.1,0,0.1c0-0.1,0.1-0.1,0,0c0.1-0.1,0.1-0.1,0,0c0.1-0.1,0.2-0.1,0.4-0.1h0.1c0,0,0.1,0,0,0
			s-0.1-0.1,0,0l-0.1-0.1c-0.3-0.3-0.6-0.6-0.8-1c-0.6-0.8-1.1-1.6-1.5-2.5c-0.2-0.6-0.3-1.2-0.3-1.8c0-0.1,0-0.3,0-0.4s0,0,0,0l0,0
			l-0.1,0.1c0,0.1-0.1,0,0,0s0.2,0,0.2,0c0.1,0,0.3,0.1,0.4,0.1c0.2,0.2,0.6,0.2,0.9,0C159.8,50.6,159.8,50.2,159.6,49.9L159.6,49.9
			z"/>
		<path class="st1" d="M150.9,58.8c0.1,0.9,0.3,1.9,0.5,2.8c0.1,0.4,0,0.8-0.2,1.1c-0.2,0.4-0.4,0.8-0.4,1.2l1.1-0.4
			c0,0,0,0.1,0,0.1l-0.8-0.1c0.7,0.6,1.5,1.1,2.3,1.5c0.3,0.1,0.7,0,0.8-0.3c0.1-0.3,0-0.6-0.2-0.7c-0.7-0.3-1.4-0.8-2-1.3
			c-0.2-0.2-0.5-0.2-0.8-0.1c-0.6,0.3-0.8,1.1-0.5,1.6c0,0.1,0.1,0.2,0.2,0.2c0.2,0.2,0.6,0.2,0.9,0c0.1-0.1,0.2-0.3,0.2-0.4
			c0-0.4,0.3-0.8,0.4-1.1c0.1-0.4,0.2-0.9,0.1-1.4c-0.1-1-0.3-2-0.5-3.1c-0.1-0.3-0.4-0.5-0.8-0.4C151,58.1,150.8,58.4,150.9,58.8
			L150.9,58.8z"/>
		<path class="st1" d="M155.6,58.8c0.2,0.9,0.3,1.9,0.5,2.8c0.1,0.4,0,0.8-0.2,1.1c-0.2,0.4-0.4,0.8-0.4,1.2l1.1-0.4
			c0,0,0,0.1,0,0.1l-0.8-0.1c0.7,0.6,1.5,1.1,2.3,1.5c0.3,0.2,0.7,0.1,0.9-0.2c0.2-0.3,0.1-0.7-0.2-0.8c0,0,0,0,0,0
			c-0.7-0.3-1.4-0.8-2-1.3c-0.2-0.2-0.5-0.2-0.8-0.1c-0.6,0.3-0.8,1.1-0.5,1.6c0,0.1,0.1,0.2,0.2,0.2c0.3,0.2,0.7,0.2,0.9,0
			c0.1-0.1,0.2-0.2,0.2-0.4c0-0.4,0.3-0.8,0.4-1.1c0.1-0.4,0.2-0.9,0.1-1.4c-0.1-1-0.3-2-0.5-3.1c-0.1-0.3-0.4-0.5-0.8-0.4
			C155.7,58.1,155.5,58.5,155.6,58.8L155.6,58.8z"/>
	</g>
</g>
</svg>
