<?xml version="1.0" encoding="UTF-8"?>
<svg width="781px" height="254px" viewBox="0 0 781 254" version="1.1" xmlns="http://www.w3.org/2000/svg" xmlns:xlink="http://www.w3.org/1999/xlink">
    <!-- Generator: Sketch 60.1 (88133) - https://sketch.com -->
    <title>Untitled</title>
    <desc>Created with Sketch.</desc>
    <g id="Page-1" stroke="none" stroke-width="1" fill="none" fill-rule="evenodd">
        <g id="db_logo" transform="translate(33.250000, 20.750000)" fill-rule="nonzero">
            <ellipse id="Oval" fill="#0F493F" transform="translate(89.805131, 75.407001) rotate(-89.260852) translate(-89.805131, -75.407001) " cx="89.8051311" cy="75.4070013" rx="30.1865241" ry="28.9340824"></ellipse>
            <g id="Group" transform="translate(0.000000, 1.000000)" fill="#000000">
                <path d="M132.762964,124.141929 C133.611156,126.488429 134.284839,128.847143 135.296717,131.047071 C138.045561,137.028 142.646358,141.022071 148.819083,143.223357 C153.173675,144.777286 157.543147,144.984929 161.913972,143.355 C166.881372,141.5025 170.013053,137.796143 171.779781,132.944357 C174.4921,125.496357 173.840061,117.690071 173.873881,109.977429 C173.890114,106.425786 173.635792,102.874143 173.492397,98.9818571 C172.880942,99.2234286 172.392589,99.3537143 171.969169,99.5966429 C167.132989,102.347571 161.863919,103.668071 156.398697,104.240786 C147.067236,105.219286 139.614783,101.351429 133.506992,94.6824286 C128.760094,89.5022143 125.977431,83.3502857 125.617592,76.1750714 C125.106242,65.9625714 127.3505,56.6539286 134.470169,49.0186429 C138.287708,44.9241429 143.081953,42.4107143 148.675689,41.6507143 C150.910478,41.3467143 153.168264,41.0481429 155.413875,41.0494954 C160.815517,41.0535714 165.731511,42.8192143 170.320133,45.5959286 C170.889653,45.942 171.483522,46.2405714 172.522456,46.8146429 C172.537336,44.7205714 172.549511,43.092 172.561686,41.3032857 C174.562444,41.3182143 176.365697,41.3304286 178.375925,41.3453571 C178.416508,41.8162857 178.508497,42.3577857 178.504569,42.8992857 C178.327225,70.11 178.237942,97.3220714 177.895689,124.530071 C177.807758,131.633357 175.815117,138.344429 170.869361,143.764857 C167.767442,147.165857 163.650939,148.879929 159.205711,149.220571 C147.105114,150.146143 135.464461,144.565571 129.711097,133.088214 C128.576117,130.827214 127.865908,127.567357 127.395142,124.410643 M172.338478,73.1147143 C172.377708,67.7716429 172.218081,62.4217857 172.515692,57.0963571 C172.761897,52.7127857 170.458117,50.4097143 166.969303,48.6562857 C163.337094,46.8295714 159.439742,46.3084286 155.458517,46.0668571 C150.048758,45.7411429 144.990722,46.6558571 140.448094,49.8573571 C134.303778,54.1893571 131.533289,60.5190714 130.625575,67.5857143 C129.629931,75.335 131.050347,82.7694286 135.490164,89.4465714 C139.708125,95.7898571 145.542656,99.3252143 153.118211,99.6536429 C159.761703,99.9427143 165.328383,96.9122143 170.704322,93.4053571 C171.873122,92.6426429 172.245136,91.8039286 172.239725,90.4671429 C172.220786,84.683 172.297894,78.8988571 172.338478,73.1147143 Z" id="Shape"></path>
                <path d="M47.2701139,105.851714 C47.2565861,104.202786 47.2768778,101.939071 47.2931111,99.7662857 C45.291,100.961929 43.3051222,102.176571 41.0351611,103.308429 C35.3169694,106.237143 28.6815944,106.815286 22.487225,105.379429 C11.9342056,102.9325 6.21195556,97.0275714 2.52969444,87.7623571 C0.0351722222,81.491 -0.311138889,74.9387143 0.568166667,68.4583571 C1.93447222,58.3761429 6.221425,50.3025 15.5988806,44.8752857 C22.2653694,40.7088571 29.2700528,40.641 35.5401778,41.8963571 C38.9058889,42.5695 41.7913639,43.5262857 44.8689333,44.6676429 C48.1331861,45.923 47.6935333,46.4767143 47.6813583,46.2473571 C47.7002972,43.5710714 47.7219417,41.3779286 47.7327639,39.1847857 C47.7882278,26.9284286 47.8396333,14.6707143 47.8978028,2.41435714 C47.908625,0.0217142857 47.9194472,0.0217142857 50.3882667,0.0352857143 C51.3230361,0.0407142857 52.2591583,0.0488571429 53.3684361,0.057 C53.4009028,0.8835 53.4523083,1.53764286 53.4484765,2.18907143 C53.0897639,49.9387857 52.8286778,83.9582857 52.6609333,105.832714 M47.4879111,72.9545714 C47.5312,67.0102857 47.5528444,61.0646429 47.6340111,55.1203571 C47.5230833,53.1986429 47.932975,52.8457857 46.8967472,52.0179286 C43.8949333,49.4095 40.2667833,48.0876429 36.4478917,47.0697857 C31.5860083,45.6067857 26.3954,45.6108571 21.6417389,47.4484286 C11.4350306,51.3922857 7.41592778,59.7007143 5.80341667,69.3893571 C5.06344722,73.8285714 5.16625833,78.3627857 6.32423611,82.8481429 C7.77711944,88.4735 10.3216944,93.3945 15.1362306,96.9814286 C20.2632583,100.797714 26.1234917,101.408429 32.4369056,100.983643 C38.8801861,100.550714 43.160375,97.1632857 46.9035111,92.6697857 C47.2809361,92.2178571 47.3336944,91.4252857 47.3418111,90.7860714 C47.4148611,84.8458571 47.445975,78.9002143 47.4879111,72.9545714 Z" id="Shape"></path>
                <path d="M480.691997,97.4021429 C475.932925,102.084286 471.740667,104.561071 466.027886,105.942643 C460.788578,107.208857 454.149144,107.369 448.962594,104.957357 C443.751694,102.538929 440.103253,98.629 437.826528,93.3714286 C436.412875,90.1020714 435.763542,86.6671429 435.842003,83.0856429 C436.093619,72.2176429 436.322239,57.2782143 436.554917,46.4129286 C436.607675,44.0352143 439.471506,43.9442857 442.198706,44.0881429 C442.225761,47.6682857 442.359686,51.2701429 442.259581,54.8638571 C442.035019,62.9958571 441.530433,75.1925 441.453325,83.3258571 C441.405978,88.7327143 442.129714,91.2407143 446.188047,97.1225714 C448.719094,100.790929 455.940222,102.735714 461.969553,102.097857 C467.34955,101.530571 471.134622,100.056714 475.312,96.3910714 C478.835986,93.3035714 481.108653,89.6026429 481.072128,84.6626429 C480.988256,73.8652143 480.842156,57.6378571 480.974728,46.8390714 C481.022075,42.9481429 483.164875,43.9483571 486.264089,43.6267143 C486.335786,50.4422857 486.036822,61.275 485.975947,68.0471429 C485.881253,78.4618571 485.553881,88.8738571 485.463244,99.2899286 C485.388842,107.293 485.643164,115.300143 485.545764,123.303214 C485.432131,132.491071 483.278508,140.925714 475.77465,147.0125 C473.060978,149.211071 469.909006,150.570929 466.452658,150.957714 C463.669994,151.269857 460.853511,151.511429 458.064083,151.408286 C448.951772,151.066286 440.391394,144.473286 437.526211,135.668143 C436.696958,133.115357 436.078739,130.483857 435.472694,127.863214 C435.25625,126.924071 435.314419,125.723 436.770008,125.999857 C437.925281,126.222429 439.586492,124.919571 440.091078,127.4425 C441.901094,138.511357 446.854967,142.848786 455.204311,145.975643 C459.423625,147.555357 463.772806,147.2215 468.111164,145.816857 C472.996044,144.229 476.180483,140.822571 478.232647,136.227286 C479.895211,132.503286 480.716347,128.566214 480.760989,124.473071 C480.843508,116.339714 480.932792,108.207714 480.999078,100.073 C481.0099,99.3428571 480.838097,98.6167857 480.691997,97.4021429 Z" id="Path"></path>
                <path d="M235.383333,58.0501811 C235.383333,58.0501811 233.726181,58.9319657 230.198136,58.9332897 C228.151383,52.9262979 224.086286,49.5315598 216.241528,48.8033593 C212.775711,48.4803031 209.454642,48.6722832 205.973944,48.8430794 C199.54825,49.9578881 195.216656,51.497701 193.110381,56.6162882 C190.473817,63.0271002 193.301122,68.7242758 200.550658,70.9591892 C204.066528,72.0448699 207.441708,72.3970541 211.2606,72.6141903 C216.9098,72.9332745 224.321669,74.9484037 228.862944,77.7446935 C233.400161,80.5383352 235.246703,85.3444582 233.757294,90.0671692 C231.537386,97.1082056 225.218561,102.725941 219.481431,104.37035 C210.665378,106.450355 203.743214,106.090227 195.460156,103.248921 C190.614506,101.584652 188.701678,97.8377301 187.704681,93.7386235 C187.631631,93.4354273 187.761497,92.8263869 187.885953,92.8078509 C189.513344,92.5999828 190.580686,92.6913389 192.221606,92.6794228 C193.736717,92.6688308 193.498628,93.7465675 193.675842,94.57142 C194.276475,97.3769778 195.592728,97.770206 199.651061,99.313991 C208.231731,100.97164 212.533564,101.194072 219.830447,99.0942069 C225.057581,97.0261176 227.062397,94.6151121 228.47605,90.0128852 C229.835592,85.5801304 228.684378,82.8619567 224.339256,80.115979 C222.550883,78.9866063 219.248753,78.3802139 217.011258,78.0214097 C213.721303,77.4918093 208.637564,76.902629 205.286733,76.5861928 C198.861039,75.9241923 195.366814,75.0424078 190.856653,70.5196209 C184.543239,64.230617 186.119225,54.1112787 194.296767,48.7927673 C199.314219,45.5291053 205.340844,43.8264402 211.712428,43.7072801 C217.709292,43.5920921 220.644819,44.4248886 225.924711,47.0239022 C232.263828,50.1445722 235.298108,55.4922115 235.383333,58.0501811 Z" id="Path"></path>
            </g>
            <ellipse id="Oval" fill="#0F493F" transform="translate(332.403201, 74.508962) rotate(-89.260852) translate(-332.403201, -74.508962) " cx="332.403201" cy="74.5089617" rx="30.1865241" ry="28.9340824"></ellipse>
            <path d="M246.783049,105.697703 C246.61496,83.8453476 246.356775,49.8553566 246.000201,2.15222316 C245.996392,1.50276743 246.047491,0.849244128 246.079765,0.0235269274 C247.182428,0.0153917826 248.112969,0.00725663774 249.042165,0.00183320785 C251.496264,-0.0117253669 251.507022,-0.0117253669 251.51778,2.3772955 C251.575602,14.6220443 251.626701,26.868149 251.681834,39.1142537 C251.692592,41.3053194 251.714107,43.4950292 251.732933,46.170136 C251.720831,46.4006318 251.285144,45.8474419 254.52859,44.5919179 C257.587809,43.4529976 260.45608,42.4971181 263.801723,41.8246128 C270.033118,40.5704447 276.996036,40.6382375 283.624121,44.80072 C292.947009,50.2214381 297.207056,58.2874343 298.565216,68.3614553 C299.439278,74.8343189 299.095032,81.3817546 296.615383,87.647172 C292.955077,96.9036109 287.266946,102.804303 276.776848,105.247558 C270.619412,106.682055 264.0236,106.10446 258.339503,103.178519 C256.081732,102.047734 254.109039,100.834242 252.118866,99.6397313 C252.135002,101.811815 252.155173,104.073385 252.141726,105.719396 M252.069111,90.6693783 C252.07718,91.3079871 252.129623,92.0998079 252.504798,92.5513084 C256.225616,97.0405525 260.480284,100.424773 266.885147,100.857291 C273.160918,101.280319 278.98621,100.671539 284.082668,96.8588676 C288.868498,93.2753363 291.397901,88.3576413 292.842122,82.7389679 C293.993195,78.257859 294.095393,73.7279392 293.359836,69.2929294 C291.756939,59.6134629 287.7618,51.3129034 277.615948,47.3727816 C272.890631,45.5369506 267.730971,45.532883 262.898077,46.9944974 C259.101955,48.0113905 255.495437,49.3333515 252.511522,51.9379537 C251.481472,52.7636709 251.88892,53.1161938 251.778654,55.036088 C251.859336,60.9747438 251.880852,66.9147554 251.923883,72.8534111 C251.965569,78.7934227 251.996497,84.7334343 252.069111,90.6693783 Z" id="Shape" fill="#000000"></path>
            <path d="M416.859578,107.719396 C416.846131,106.072029 416.867647,103.810459 416.883783,101.639731 C414.893594,102.834242 412.91954,104.047734 410.661751,105.178519 C404.977607,108.10446 398.380397,108.682055 392.224255,107.247558 C381.732727,104.802947 376.045894,98.9036109 372.384214,89.647172 C369.904545,83.3817546 369.560296,76.8356747 370.43571,70.3614553 C371.79388,60.2874343 376.053963,52.2214381 385.376926,46.80072 C392.003721,42.6382375 398.965351,42.5704447 405.198142,43.8246128 C408.543812,44.4971181 411.412106,45.4529976 414.471351,46.5919179 C417.714822,47.8474419 417.279132,48.4006318 417.265685,48.170136 C417.284511,45.4950292 417.306026,43.3053194 417.318129,41.1142537 C417.373263,28.8695049 417.423017,16.6234002 417.48084,4.3772955 C417.491598,1.98827463 417.502356,1.98827463 419.95782,2.00183321 C420.885679,2.00725664 421.817572,2.01539178 422.920244,2.02352693 C422.951173,2.84924413 423.003617,3.50276743 422.999803,4.15222316 C422.641887,51.8567125 422.3837,85.8453476 422.216954,107.697703 M417.076079,74.8534111 C417.11911,68.9147554 417.140625,62.9747438 417.221309,57.036088 C417.111042,55.1161938 417.518493,54.7636709 416.488435,53.9379537 C413.504495,51.3319956 409.897948,50.0113905 406.100451,48.9944974 C401.267517,47.532883 396.107815,47.5383064 391.382459,49.3727816 C381.236525,53.3129034 377.241353,61.6134629 375.639788,71.2929294 C374.904225,75.7279392 375.005079,80.257859 376.157506,84.7389679 C377.601739,90.3589971 380.131162,95.2753363 384.917031,98.8588676 C390.013531,102.671539 395.83887,103.281675 402.114692,102.857291 C408.520952,102.424773 412.77431,99.0405525 416.493814,94.5513084 C416.868991,94.0998079 416.921436,93.3079871 416.929504,92.6693783 C417.003464,86.7334343 417.035737,80.7934227 417.076079,74.8534111 Z" id="Shape" fill="#000000"></path>
        </g>
        <g id="logo" transform="translate(553.250000, 20.750000)" fill="#010101" fill-rule="nonzero">
            <path d="M115.111731,2.22729236 C114.353077,1.97534112 113.598021,1.71831279 112.836796,1.46382301 C114.350507,20.0847326 115.060846,39.324414 120.559547,56.9863858 C121.112604,58.7709875 123.478002,58.0037103 122.913637,56.1988002 C117.486895,38.7722791 116.771416,19.8461087 115.281349,1.47397721 C115.156449,-0.0218642334 113.730117,-0.55749859 113.006414,0.711142499 C104.996341,14.7525052 104.745753,37.7742137 102,54 C101.681324,55.8855091 103.68338,55.8899516 104,54 C106.697437,38.0566276 107.245062,16.021781 115.111731,2.22729236 Z" id="Path"></path>
            <path d="M125.013808,55.7971621 C127.055089,38.2914837 129.008499,18.8894128 137.558616,3.36883128 C136.6426,3.2391347 135.732905,3.11078212 134.816889,2.98108554 C139.57145,22.7977823 142.987071,42.9612326 143.002876,63.4606844 C143.002876,65.5069336 146,65.5156696 146,63.4714365 C145.986724,42.6998234 142.531908,22.2245637 137.716027,2.14780181 C137.394884,0.81253183 135.622275,0.588082825 134.970507,1.76140008 C126.133384,17.8047999 124.127504,37.692057 122.013523,55.785738 C121.774562,57.8118271 124.77864,57.797715 125.013808,55.7971621 L125.013808,55.7971621 Z" id="Path"></path>
            <path d="M103.494566,53.0004902 C65.433571,53.8277046 41.9191178,90.461582 6.13365137,97.8984281 C4.15547431,98.3073199 4.98305886,101.370304 6.9507102,100.962759 C42.3888279,93.5993382 65.9881447,56.992406 103.48733,56.1786642 C105.496426,56.1342047 105.509583,52.9546836 103.494566,53.0004902 L103.494566,53.0004902 Z" id="Path"></path>
            <path d="M7.48590301,104.802224 C45.9156346,108.194654 84.9048886,102.275228 123.042381,108.969457 C125.003337,109.314801 125.849844,106.624907 123.875755,106.277786 C85.4427394,99.5296517 46.2144406,105.425383 7.49641047,102.008074 C5.49802239,101.83096 5.50787314,104.624516 7.48590301,104.802224 L7.48590301,104.802224 Z" id="Path"></path>
            <path d="M92.5090644,63.5288849 C90.8987085,65.2842552 90.0987977,67.1470524 90.0011791,69.5674465 C89.9646599,70.5174804 90.782128,71.2826231 91.6656115,71.2987006 C95.3919738,71.3586258 99.0621527,71.9220689 102.777981,71.2709303 C103.836335,71.0831159 104.312489,69.6229869 103.781556,68.7394554 C102.363628,66.3658323 99.8880483,64.3415293 97.0163756,65.0409004 C94.1629625,65.7344251 92.5125759,68.3170557 92.0574906,71.1854273 C91.9268642,72.0236495 92.2499186,73.1527282 93.2134635,73.3098492 C95.296462,73.6445535 97.2010784,73.7760966 99.1674965,72.8947575 C101.028571,72.0558045 101.97807,69.8290712 102.614346,67.9976982 C102.948638,67.0388947 102.24775,66.2043265 101.45416,65.8725454 C98.971557,64.8289698 96.3793966,64.4825728 93.8967937,65.6905774 C91.4942522,66.8605807 90.7420973,69.8393023 90.6585245,72.3283911 C90.5889976,74.552932 93.9220763,74.5573168 93.9951147,72.3408147 C94.1334662,68.0210836 97.2916741,67.8244997 100.55663,69.1954717 C100.171072,68.4858694 99.7855136,67.7791904 99.4006575,67.0703189 C98.4125324,69.9160358 96.8892607,70.4392853 94.1123974,69.9883846 C94.4937421,70.693602 94.8793005,71.4039351 95.2683704,72.1135373 C95.832311,68.5560258 98.7980908,66.9658152 100.895838,70.4707095 C101.226617,69.6259101 101.560908,68.7862263 101.895199,67.9436193 C98.5178762,68.5370251 95.0689194,67.9048872 91.674039,67.8478851 C92.2260407,68.4252134 92.7822561,69.0047341 93.3307463,69.5791392 C93.392548,68.0788165 93.8616791,67.0600878 94.854018,65.9755876 C96.337259,64.3641839 93.988794,61.9138273 92.5090644,63.5288849 L92.5090644,63.5288849 Z" id="Path"></path>
            <path d="M112.58168,69.7058548 C114.299661,75.9844323 120.744851,74.7467074 122.830264,69.4750453 C123.149442,68.6675606 123.035492,67.7024838 122.343067,67.2248266 C119.462906,65.2291259 115.211267,65.5268772 112.890975,68.5845807 C110.631147,71.5558178 113.041553,75.6197393 115.978689,75.97467 C118.485604,76.2738159 120.712293,73.8764648 121.578551,71.2601584 C122.893635,67.2834006 119.35535,65.3051327 116.68623,65.0052895 C116.072292,64.9362558 115.515329,65.5540723 115.350217,66.2081489 C114.775231,68.4792869 114.739185,70.8682703 114.73279,73.2251774 C114.726395,74.0717115 115.355449,74.9342837 116.107756,74.8729205 C116.811808,74.8157411 117.546093,74.7104473 118.082126,74.0968147 C118.428048,73.70144 118.629205,72.9755405 119.017568,72.6854596 C120.519275,71.5593043 119.140821,68.7080045 117.630393,69.8418303 C117.197264,70.1667766 116.406005,71.5579097 116.114151,71.5844075 C116.577512,72.1331903 117.034477,72.684065 117.494931,73.2328478 C117.501326,71.1611404 117.504233,69.0915249 118.012942,67.0937323 C117.567604,67.4932908 117.128661,67.8956386 116.676928,68.2958944 C117.79318,68.4214102 119.378605,68.7031234 118.924547,70.3780615 C118.638507,71.4184477 117.528651,72.5578519 116.610651,72.7008004 C115.488004,72.8702467 114.19792,71.6109052 115.211848,70.4631333 C116.6653,68.812601 119.330932,68.9416033 120.94659,70.0593909 C120.787292,69.307691 120.619272,68.5587802 120.456486,67.8077776 C119.508253,70.2044314 116.255427,72.517408 115.247312,68.8404934 C114.693256,66.8371223 112.024717,67.685051 112.58168,69.7058548 L112.58168,69.7058548 Z" id="Path"></path>
            <path d="M4.8515397,101.551191 C6.29596768,102.111895 7.95760772,102.656431 9.47551397,102.032996 C11.3401861,101.263402 11.9441258,99.2818596 12.2547971,97.456823 C12.4049763,96.5669397 12.0279168,95.9072879 11.1906513,95.577462 C6.27663129,93.6437768 2.55050984,96.7713025 3.11448775,101.906239 C3.19118874,102.607281 3.52119639,103.163458 4.23213082,103.381402 C7.08424765,104.247356 10.0233782,103.95892 12.2483516,101.861616 C13.6328368,100.555246 14.7807736,97.8746024 13.3228101,96.2215926 C11.5045453,94.1682647 8.18835526,96.4356561 6.65755808,97.724564 C3.72551752,100.184031 2.77094463,103.680185 3.09837409,107.398811 C3.16862963,108.205267 3.73196299,108.956106 4.62659308,108.929591 C9.42717301,108.790546 12.7330504,105.496168 12.909656,100.714339 C12.9399497,100.00877 12.4262464,99.4603537 11.7920129,99.2404697 C8.30952994,98.0324015 4.33977003,98.5090323 1.99104376,101.584821 C0.983618085,102.902831 -0.37444071,105.472239 0.096077999,107.187334 C0.686482297,109.338316 3.61852286,109.019484 5.24020104,108.930237 C7.20155506,108.824176 7.22153599,105.771023 5.25051378,105.879024 C4.45965562,105.921708 3.35232529,106.263175 2.6587936,105.707644 C2.78899193,106.20303 2.91532298,106.701649 3.04874404,107.191861 C3.662352,102.832339 6.71492269,100.703345 10.9747284,102.179801 C10.6008916,101.687649 10.2238321,101.197437 9.85386258,100.705285 C9.74364518,103.798534 7.74555203,105.784604 4.639484,105.875791 C5.14351911,106.386051 5.65335514,106.897604 6.16383571,107.405924 C5.96338185,105.167635 6.16061298,103.129829 7.45808444,101.239473 C8.00852687,100.425256 8.88575422,99.8115212 9.7062615,99.2967341 C10.1400411,99.0218792 10.6066925,98.802642 11.067543,98.5821113 C11.5980045,98.3240711 11.5548199,98.5549492 11.228035,98.3900363 C10.6408535,98.0951331 11.0714103,97.8506739 10.8007009,98.6804124 C10.6402089,99.1667439 10.2231875,99.578703 9.86030804,99.9188763 C8.56605932,101.141172 6.61115076,100.911588 5.05972811,100.440777 C5.43356489,100.932929 5.80675713,101.423788 6.17737118,101.91594 C6.05361832,100.8107 5.93373273,99.4655274 6.68785175,98.5355477 C7.5818373,97.4290141 9.3098656,98.0996601 10.3707886,98.5180863 C10.01371,97.8901237 9.65985418,97.2653946 9.30664287,96.6374319 C9.20673822,97.2388792 9.09329809,98.9184044 8.38623093,99.2081339 C7.60568551,99.5301991 6.38491505,98.8860686 5.67398062,98.6138005 C3.82735582,97.8959441 3.0300522,100.843036 4.8515397,101.551191 L4.8515397,101.551191 Z" id="Path"></path>
            <path d="M120.345295,108.539737 C92.9365714,141.619428 80.4274027,183.53302 56.2851122,218.65855 C55.107143,220.366916 57.8859076,221.972957 59.0469908,220.28221 C83.0285262,185.394537 95.3972033,143.647647 122.603294,110.803102 C123.914326,109.230266 121.666458,106.948605 120.345295,108.539737 L120.345295,108.539737 Z" id="Path"></path>
            <path d="M131.61727,100.451568 C127.668694,101.050646 123.94556,104.371135 127.311075,108.048842 C130.946985,112.020189 134.762711,106.897224 135.486001,103.602297 C135.902665,101.662177 132.877996,100.823206 132.408998,102.771847 C131.960799,104.637902 131.099963,107.561846 132.756553,109.13295 C134.194411,110.496933 136.319999,109.388574 137.680698,108.528629 C139.472821,107.397984 141.070367,106.00254 142.88329,104.902046 C143.775661,104.359992 144.067527,104.688371 143.660928,104.068975 C144.16817,104.834535 143.407306,106.9726 143.226819,107.75127 C144.248014,108.03049 145.275918,108.305122 146.297113,108.583031 C146.887555,105.366102 148.581718,105.194375 151.568143,104.732286 C150.894503,104.230214 150.227573,103.73142 149.553933,103.233281 C149.546553,104.675262 149.546553,106.119209 149.539843,107.56119 C149.535817,109.289601 152.241111,109.6986 152.665156,107.981987 C152.970441,106.770723 153.279751,105.607306 154.168768,104.657565 C154.553896,104.2466 154.64783,107.441899 154.637095,107.576266 C154.588786,108.305777 155.168492,108.828167 155.803887,109.071338 C161.18965,111.116329 166.003088,108.917308 164.791341,102.865576 C164.441102,101.116191 161.673409,101.563205 161.659319,103.266709 C161.651939,104.347539 161.825716,105.839334 161.23192,106.815293 C160.658924,107.740783 161.235275,108.729195 162.1726,109.089035 C166.912233,110.909208 171.125165,109.378742 170.576323,103.911012 C170.402545,102.234381 167.985762,101.729033 167.447656,103.490216 C167.07192,104.725076 167.176589,105.96518 166.801525,107.198073 C166.617683,107.812882 166.898814,108.66234 167.530854,108.949425 C170.006681,110.058439 173.43795,111.27167 176.094935,109.935871 C178.831093,108.56009 178.098409,104.708034 177.532793,102.280918 C177.376461,101.616296 176.685376,101.145686 176.005027,101.143719 C175.1509,101.140442 174.303483,101.136509 173.456065,101.135199 C172.7992,101.135199 172.032297,101.599254 171.913538,102.267809 C170.222058,111.575797 182.797113,113.131825 189.194007,109.747103 C192.621249,107.932173 192.763492,103.740596 192.93056,100.389957 C193.1976,95.0749455 192.701093,89.4925125 191.325633,84.3334976 C190.530551,81.3499078 188.165431,77.0246201 184.835477,76.1338691 C181.459898,75.2326309 181.035854,79.0938629 181.129788,81.3728484 C181.283437,85.2006526 182.210027,89.0219023 182.970891,92.7703976 C184.463768,100.089762 185.095808,107.549392 186.526957,114.8799 C186.912086,116.836406 189.985064,116.015132 189.60329,114.066491 C187.884301,105.292037 186.853042,96.4022235 185.175652,87.6146599 C184.668409,84.9332307 184.106148,82.1279221 184.342325,79.3927462 C184.414788,78.6127656 184.803942,78.989647 183.936396,79.0827203 C183.963905,79.0794431 184.637545,79.5900355 184.839503,79.7584851 C186.072049,80.8235847 187.176442,82.1239894 187.766883,83.6282378 C189.138317,87.1283191 189.450983,91.0918006 189.683133,94.7937592 C189.901865,98.2466483 190.027334,101.994488 189.047738,105.35627 C188.266746,108.058674 183.866617,108.341826 181.537058,108.324785 C178.282922,108.303811 174.292747,106.9064 174.983832,103.094326 C174.469209,103.471208 173.959282,103.848089 173.44533,104.22366 C174.292747,104.226937 175.142849,104.228903 175.994292,104.230214 C175.483694,103.852022 174.973768,103.469241 174.459144,103.091049 C174.781874,104.470107 174.990542,105.682027 174.681231,107.073539 C174.410836,108.326096 169.677242,106.51641 169.145845,106.278483 C169.385376,106.859863 169.628933,107.443866 169.875174,108.025902 C170.250909,106.789075 170.142214,105.550938 170.51795,104.316078 C169.475955,104.179089 168.437315,104.036202 167.392637,103.895281 C167.489926,104.883694 167.81601,106.447588 166.535156,106.855275 C165.472361,107.194141 163.992904,106.471184 163.030753,106.101512 C163.346773,106.862485 163.662793,107.619525 163.975459,108.377221 C164.92352,106.831024 164.836295,105.01806 164.847031,103.26933 C163.805036,103.405008 162.763713,103.536097 161.718363,103.670463 C162.471847,107.444521 159.298225,107.08337 156.66204,106.085126 C157.051194,106.584576 157.439678,107.080093 157.822122,107.578232 C157.96101,105.509645 157.683235,101.405242 154.602876,101.396721 C151.509099,101.388201 150.202748,104.700169 149.598887,107.14236 C150.644236,107.285248 151.68556,107.423547 152.7242,107.562501 C152.730909,106.119209 152.734935,104.678539 152.740974,103.234592 C152.744999,102.147207 151.737895,101.582213 150.726764,101.73952 C146.570192,102.383168 144.024586,103.412218 143.225477,107.746026 C142.875238,109.678936 145.840192,110.544125 146.299126,108.575821 C146.767453,106.545249 147.580652,103.677673 145.954926,101.927633 C144.621736,100.480408 142.361286,101.569759 141.030781,102.378579 C139.217858,103.478418 137.620312,104.881072 135.824834,106.012372 C135.508814,106.213594 135.158575,106.43579 134.800955,106.572778 C134.13738,106.831679 134.630532,106.460041 135.054577,107.023069 C134.585578,106.393841 135.311553,104.300347 135.488014,103.59902 C134.46011,103.319144 133.438915,103.045168 132.41101,102.766603 C132.182214,103.829737 131.338152,107.40585 129.570854,105.865552 C127.817646,104.331153 131.577683,103.567558 132.460661,103.431881 C134.482251,103.12972 133.624099,100.148097 131.61727,100.451568 L131.61727,100.451568 Z" id="Path"></path>
            <path d="M149.173608,56.4001991 C148.819411,59.4432627 148.536984,65.7896385 153.356192,64.4337505 C155.01753,63.9685818 156.462229,62.6495794 157.782661,61.5901424 C158.783451,60.7936863 160.719906,58.5682539 162.106126,58.6953043 C161.968567,57.6385997 161.831009,56.5832611 161.696773,55.5279225 C157.449064,56.8633186 156.785194,59.0395701 155.526564,63.0792285 C155.097274,64.4569747 156.672223,65.5847184 157.834494,64.9064328 C158.95623,64.2506885 160.25606,63.797815 161.188403,62.8531333 C162.319442,61.7021654 162.618483,59.6474998 163.001255,58.1563645 C163.510289,56.1303877 160.610258,55.3380299 159.961007,57.2909185 C158.429918,61.8647354 158.578109,67.0512633 158.227235,71.8136066 C158.000628,74.8184185 158.079708,83.2624931 154.041328,83.8635921 C154.688585,84.239962 155.337836,84.6183811 155.977783,84.9947511 C154.443372,80.3621905 158.928984,73.8812505 161.195713,70.2111314 C163.867809,65.8757049 167.30412,60.5197764 171.737898,57.855815 C170.947102,57.3899633 170.158963,56.9234285 169.368166,56.4582598 C169.426645,58.7246762 169.77752,60.8510639 169.406045,63.1188464 C170.438068,63.2657058 171.469426,63.410516 172.505436,63.5573755 C172.470881,62.5279934 172.284811,61.1085802 172.759953,60.1427234 C172.440312,60.7930032 172.123329,60.1919042 173.17263,60.9487425 C174.668498,62.0273053 175.927792,63.4275927 177.413693,64.530746 C181.808928,67.8012709 184.460423,63.8804662 185.076447,59.5095202 C185.334287,57.6645562 183.315429,56.775886 182.197681,58.2595076 C180.842694,60.05734 180.718426,62.3162427 180.123667,64.439215 C179.831936,65.4945535 180.636024,66.416694 181.640136,66.4829515 C184.546813,66.6755764 187.346499,65.8367701 188.532695,62.9282707 C189.637152,60.2076147 186.685951,58.1891517 184.611937,57.5272597 C182.823673,56.9575818 181.964429,59.4787822 183.383876,60.4685464 C186.758386,62.8176139 191.56962,64.3401703 193.440951,59.3961311 C195.091656,55.0326989 194.197857,50.1234962 194.635121,45.5749529 C193.603098,45.7163478 192.567752,45.8563765 191.532406,45.9929899 C192.60563,48.9882388 192.416238,51.955482 192.537183,55.0818798 C192.691355,59.1563746 194.098841,62.8633794 196.05191,66.37571 C197.056687,68.17969 199.790584,66.5656026 198.779162,64.755475 C196.80815,61.2096741 195.728281,57.7813607 195.652524,53.708232 C195.598032,50.7485025 195.587399,47.9656875 194.579964,45.1446206 C193.953972,43.3993844 191.656674,43.7375026 191.480572,45.5647069 C191.178209,48.7191104 191.418771,51.9035689 191.161596,55.0627539 C191.051283,56.3872209 190.858568,58.1099159 189.988027,59.1734513 C188.791199,60.6317994 185.987525,58.3879242 184.9874,57.6884636 C184.582033,58.6693478 184.169357,59.6488659 183.762661,60.6297502 C187.628262,61.8681507 183.635735,63.3913902 181.650769,63.2581921 C182.15648,63.9405761 182.658869,64.62296 183.163915,65.3032948 C183.673614,63.4774566 183.752693,61.4357693 184.914965,59.8913547 C183.952054,59.476733 182.991801,59.058696 182.032877,58.6413421 C181.850794,59.965126 181.753772,63.3251327 179.821304,62.2800401 C178.136043,61.3695118 176.818269,59.8018729 175.329046,58.6078718 C174.045829,57.5771236 172.619072,56.7178253 171.001593,57.4978878 C169.072448,58.4289082 169.292409,61.8367296 169.344243,63.5450802 C169.395412,65.2875842 172.133297,65.8388193 172.44297,63.9836093 C172.866279,61.4111789 172.583852,59.0436685 172.518727,56.4644074 C172.487494,55.2587941 171.204277,54.4316 170.148995,55.0675354 C165.007487,58.1556814 161.161822,64.2062891 158.06243,69.2329794 C155.410935,73.5287879 151.152594,80.4871917 152.93089,85.8410711 C153.233253,86.7515995 153.972216,87.1074774 154.866681,86.9722301 C159.60681,86.267988 160.438808,79.9653285 160.961797,76.0984861 C161.745948,70.2309403 161.109988,63.8101103 162.99461,58.1536322 C161.983852,57.8653779 160.969107,57.5750744 159.951039,57.2881863 C159.744368,58.1187958 159.554976,60.1570678 158.808703,60.7274288 C158.055785,61.2991559 157.064963,61.6393232 156.249578,62.1140548 C157.019774,62.7219845 157.789971,63.3299141 158.561496,63.939893 C159.438018,61.1215584 159.479883,59.588756 162.523454,58.6324622 C164.287795,58.0778118 163.854518,55.6256011 162.110778,55.4643973 C159.820125,55.2533296 157.583965,57.6474795 155.95386,58.9739957 C154.911869,59.8237311 153.790798,60.8292057 152.528181,61.3141833 C151.696184,61.6331756 152.243096,57.1495237 152.328821,56.4001991 C152.571376,54.3516811 149.41417,54.3619271 149.173608,56.4001991 L149.173608,56.4001991 Z" id="Path"></path>
            <path d="M194.059462,53.2522462 C196.531434,53.9000117 199.035241,53.9908396 201.562145,54 C203.474178,54.0056256 203.481044,50.6851238 201.572133,50.6773787 C199.306784,50.6682255 197.068276,50.6309086 194.854738,50.0507361 C192.99639,49.5613916 192.197993,52.7607894 194.059462,53.2522462 L194.059462,53.2522462 Z" id="Path"></path>
            <path d="M150.993523,54 C153.659523,54.0067753 153.67345,50.0067948 151.007449,50 C148.335355,49.992379 148.331003,53.9932074 150.993523,54 L150.993523,54 Z" id="Path"></path>
            <path d="M53.0519511,220.405792 C54.470586,220.488121 55.4706915,221.890361 56.922064,222.043731 C59.0480906,222.268807 59.5468595,219.036748 59.7760236,217.581393 C59.9352188,216.544983 59.2246176,215.791411 58.2007612,215.96138 C56.3501167,216.274095 54.2138195,216.444064 52.7887655,217.849624 C51.2269833,219.39262 51.1807653,222.347816 50.8880515,224.375487 C50.7551749,225.320274 51.4266192,226.292945 52.4562529,225.994172 C54.186859,225.497545 56.7583754,225.214043 57.8483492,223.538923 C58.8452451,222.011198 58.0004833,218.906616 57.9914965,217.231496 C57.987645,216.448048 57.1704856,215.644017 56.3796448,215.958724 C54.8743513,216.561581 53.0801954,216.936043 51.7482193,217.905395 C50.2994143,218.967699 49.7017903,220.874533 49.0637256,222.491227 C48.8172298,223.114666 49.3224178,223.991066 49.9508538,224.111239 C52.6321379,224.624465 57.0838269,225.585185 59.236814,223.157158 C60.715147,221.486686 59.8183901,219.168872 58.4729336,217.767296 C57.1505862,216.389621 54.8717836,215.473384 53.1668541,216.674451 C50.4393521,218.598548 51.2931007,223.262061 51.7976468,226.016082 C51.9407941,226.79422 53.0339775,227.296158 53.6752518,226.805507 C55.0104375,225.778392 56.5818484,224.766548 57.3431611,223.175084 C58.186639,221.398382 57.9844354,219.140987 57.9914965,217.228841 C57.9947061,216.075577 56.6094508,215.495294 55.811549,216.292022 C53.5288949,218.583942 51.7411582,220.15947 50.8874096,223.436677 C50.6017569,224.544792 51.7841666,225.514144 52.7650146,224.926557 C53.8774554,224.25797 55.366701,223.845663 56.3430556,222.969263 C57.3431611,222.070289 57.5556354,219.703344 57.9407851,218.519539 C57.5261072,218.838894 57.1172066,219.158913 56.7044544,219.477604 C56.7513143,219.477604 56.7981742,219.477604 56.8476018,219.479596 C58.4954007,219.482916 58.5056714,216.85969 56.8546628,216.854379 C55.8943562,216.852387 54.9308399,216.849067 53.9673237,216.845747 C53.2894601,216.843756 52.6655176,217.436654 52.6886265,218.151717 C52.7553858,220.462227 53.2663511,222.807926 53.6290338,225.083911 C53.8049189,226.192026 55.4995777,226.388552 55.964967,225.405258 C56.9811203,223.254093 57.7090533,220.986075 58.7258486,218.836239 C59.2470846,217.726131 58.4100259,216.73487 57.2873144,216.899527 C55.4270412,217.171078 53.2573643,217.264029 51.7520708,218.566679 C50.5356395,219.619687 49.9778143,221.752262 49.190825,223.116658 C48.5726597,224.18892 49.5766167,225.226658 50.6293593,225.051378 C52.6327798,224.716088 55.0110794,224.558071 56.5330628,223.005116 C58.1307923,221.367177 57.9818677,218.40003 57.9914965,216.28671 C57.9979156,215.098258 56.6190796,214.608271 55.811549,215.353875 C54.0770913,216.955298 50.0272419,221.745622 53.3632805,223.90409 C54.4262938,224.591268 55.7486412,223.927992 56.4663035,223.048272 C57.7488521,221.464112 57.9542653,219.201405 57.987645,217.228841 C58.0043348,216.315924 56.8617239,215.472056 56.0676735,216.08952 C54.838404,217.04161 53.4460877,218.010298 52.7855559,219.491547 C52.1173211,220.986075 52.1012732,222.788672 51.8021402,224.377479 C51.6358839,225.236617 52.3830744,226.422413 53.3696997,225.999484 C54.8518842,225.365421 56.4232951,224.672932 57.0645694,223.044288 C57.6557743,221.545776 57.7552713,220.217233 58.7258486,218.830927 C59.5930775,217.592016 57.7257432,216.20571 56.7224281,217.231496 C56.1344328,217.831034 55.5092064,218.222758 54.8852639,218.767189 C53.5070697,219.964936 52.4697331,221.517891 51.2237737,222.853074 C50.0779532,224.070739 51.8791702,225.937073 53.0249906,224.715424 C54.1515536,223.514358 55.1150699,222.153945 56.2775802,220.985411 C56.9753431,220.294914 57.818821,219.813558 58.5268546,219.095175 C57.8554102,218.562695 57.1910269,218.031544 56.5234341,217.497736 C55.7293837,218.635065 55.1811872,219.83082 54.9051633,221.205175 C54.6362004,222.553637 53.9480662,222.927435 52.6988972,223.459915 C53.2201332,224.002353 53.7420111,224.540808 54.263889,225.079927 C54.5225812,223.716859 54.6362004,222.315283 54.9719226,220.970141 C55.2537238,219.814222 56.493264,219.02347 57.3508641,218.360194 C56.7160089,217.979093 56.0747346,217.599319 55.4373118,217.217554 C55.4103513,218.404678 55.3506531,219.646909 54.8724255,220.751705 C54.5168039,221.563039 54.2144614,221.235717 54.7029597,221.6779 C53.8755296,220.930304 57.1878174,217.610606 57.6166174,217.21357 C56.8886844,216.898863 56.1607514,216.590131 55.4366699,216.277415 C55.4263992,217.744722 55.6992136,220.148183 54.5726507,221.298127 C53.5962961,222.302004 51.2167126,222.302004 49.9547053,222.513137 C50.4361425,223.157822 50.915012,223.80118 51.3932396,224.445865 C52.087151,223.248118 52.5461211,221.610843 53.4300398,220.555842 C54.2799369,219.539351 56.8122964,219.597777 57.9619683,219.43312 C57.4798892,218.786443 57.0016617,218.141094 56.5234341,217.4984 C55.5066388,219.645581 54.7722866,221.918911 53.7587009,224.068747 C54.5399129,224.176969 55.3172735,224.281872 56.0984855,224.390094 C55.7691825,222.343168 55.3102124,220.237151 55.244095,218.157692 C54.8159369,218.597884 54.3903465,219.034093 53.9621883,219.466981 C54.9218531,219.470965 55.8892208,219.474285 56.8488856,219.477604 C58.4966846,219.481588 58.5037456,216.857698 56.8559467,216.852387 C56.8097287,216.852387 56.7564497,216.852387 56.7095898,216.852387 C56.1215945,216.852387 55.6562052,217.25407 55.4764687,217.811116 C55.2107154,218.632409 54.9616519,219.460342 54.7292782,220.290267 C54.6625189,220.542564 54.2439896,221.446186 54.5399129,221.104921 C54.6599513,220.964165 53.9621883,221.341947 53.765762,221.429587 C52.9717116,221.774836 52.2206696,222.207724 51.4766887,222.653228 C52.1019151,223.149191 52.7290673,223.642498 53.3504422,224.140453 C54.0815847,221.343275 55.6632663,220.110339 57.6134078,218.1557 C56.8861167,217.844977 56.1556161,217.532925 55.4341022,217.221537 C55.4302507,218.759222 55.5733981,220.439653 55.09838,221.924222 C54.7427585,223.037649 53.2316877,223.890147 52.3875678,224.536161 C53.0121523,224.797753 53.6360949,225.062001 54.2645309,225.326249 C53.9621883,223.679015 53.1912469,220.350685 54.493695,218.934502 C54.6894794,218.725361 54.9552327,218.702123 55.2813262,218.779804 C55.7524927,218.890018 56.1684544,219.161569 56.5439754,219.506818 C56.9156449,219.849411 57.252009,220.326783 57.3778246,220.685311 C57.5472905,221.181938 57.4908018,221.229741 57.3380258,221.400374 C56.0689574,222.834483 52.1853642,221.872435 50.6402719,221.577646 C50.9355533,222.120084 51.2314767,222.656548 51.5274001,223.19633 C51.9157594,222.218347 52.317599,220.701245 53.2117883,220.045273 C54.2850722,219.263152 55.8397933,218.976994 57.052373,218.495638 C56.5138053,218.068724 55.972028,217.647123 55.4373118,217.222201 C55.443731,218.742623 55.8892208,220.684647 55.6664759,222.115437 C55.5862364,222.60476 52.562811,223.236831 51.7854504,223.46257 C52.3041187,224.003017 52.8324158,224.5428 53.3536517,225.083911 C53.5924446,223.405471 53.6226146,221.260946 54.5328519,219.783681 C55.2010866,218.696147 57.8290917,218.677557 58.8792666,218.501613 C58.3541791,217.959174 57.8323013,217.419391 57.3110653,216.880272 C57.1948784,217.629196 57.1518701,218.873419 56.669791,219.50217 C56.9092257,219.186799 56.7635107,219.344152 56.2076113,218.990273 C55.2075058,218.358202 54.247841,217.852944 53.0551607,217.780575 C51.4073617,217.677664 51.4105713,220.306865 53.0519511,220.405792 L53.0519511,220.405792 Z" id="Path"></path>
            <path d="M50.4479023,216.033146 C46.5695342,216.943443 42.7267304,218.016294 38.8870462,219.130521 C37.3371964,219.581976 37.9860868,222.404489 39.5427998,221.950818 C43.3787405,220.835851 47.2252879,219.765217 51.1005363,218.853442 C52.6728477,218.485481 52.0102307,215.664446 50.4479023,216.033146 L50.4479023,216.033146 Z" id="Path"></path>
            <path d="M53.4113582,221.077411 C50.7461256,221.961779 48.5483622,223.678531 45.8969561,224.559186 C44.3227044,225.084608 44.9909877,227.454889 46.5856501,226.922659 C49.2508827,226.037053 51.4486462,224.320301 54.0993938,223.43779 C55.6815465,222.912986 55.0060206,220.545181 53.4113582,221.077411 L53.4113582,221.077411 Z" id="Path"></path>
            <path d="M53.9200276,222.597202 C52.3422253,225.421308 50.7666281,228.24275 49.1888257,231.065524 C48.3982707,232.481905 50.2963746,233.80506 51.0808654,232.402663 C52.6586678,229.579889 54.2370214,226.758446 55.811516,223.93767 C56.6015198,222.521289 54.701762,221.193473 53.9200276,222.597202 L53.9200276,222.597202 Z" id="Path"></path>
        </g>
        <path d="M603,192 C588.333333,192 573.666667,192 559,192 L2,192 L2,2 L779,2 L779,192 L665,192" id="Path" stroke="#000000" stroke-width="4"></path>
    </g>
</svg>