<svg enable-background="new 0 0 358 391" height="391" viewBox="0 0 358 391" width="358" xmlns="http://www.w3.org/2000/svg"><g fill="#010101"><path d="m180.779 107.963c5.248-25.122 5.569-54.075 20.874-75.811-1.476-.397-2.945-.802-4.426-1.203 2.945 29.341 4.327 59.657 15.025 87.487 1.076 2.812 5.678 1.603 4.58-1.241-10.558-27.459-11.95-57.281-14.849-86.23-.243-2.357-3.018-3.201-4.426-1.202-15.584 22.125-16.014 51.364-21.356 76.931-.62 2.971 3.962 4.247 4.578 1.269z"/><path d="m216.932 113.106c3.229-26.05 6.319-54.922 19.844-78.018-1.449-.193-2.888-.384-4.337-.577 7.521 29.489 12.924 59.494 12.949 89.999 0 3.045 4.741 3.058 4.741.016-.021-30.91-5.486-61.379-13.104-91.255-.508-1.987-3.312-2.321-4.343-.575-13.979 23.874-17.152 53.468-20.496 80.393-.378 3.015 4.374 2.994 4.746.017z"/><path d="m182.291 107.814c-57.856 1.228-93.6 55.611-147.997 66.651-3.007.607-1.749 5.154 1.242 4.549 53.869-10.931 89.742-65.274 146.744-66.482 3.054-.066 3.074-4.786.011-4.718z"/><path d="m34.899 180.986c58.518 5.727 117.888-4.266 175.961 7.035 2.986.583 4.275-3.958 1.269-4.544-58.523-11.392-118.257-1.439-177.214-7.208-3.043-.299-3.028 4.417-.016 4.717z"/><path d="m164.438 119.774c-2.293 2.402-3.432 4.951-3.571 8.263-.052 1.3 1.112 2.347 2.37 2.369 5.306.082 10.532.853 15.823-.038 1.507-.257 2.185-2.255 1.429-3.464-2.019-3.248-5.544-6.018-9.633-5.061-4.063.949-6.413 4.483-7.061 8.408-.186 1.147.274 2.692 1.646 2.907 2.966.458 5.678.638 8.478-.568 2.65-1.148 4.002-4.195 4.908-6.701.476-1.312-.522-2.454-1.652-2.908-3.535-1.428-7.226-1.902-10.761-.249-3.421 1.601-4.492 5.677-4.611 9.083-.099 3.044 4.647 3.05 4.751.017.197-5.911 4.694-6.18 9.343-4.304-.549-.971-1.098-1.938-1.646-2.908-1.407 3.894-3.576 4.61-7.53 3.993.543.965 1.092 1.937 1.646 2.908.803-4.868 5.026-7.044 8.013-2.248.471-1.156.947-2.305 1.423-3.458-4.809.812-9.72-.053-14.554-.131.786.79 1.578 1.583 2.359 2.369.088-2.053.756-3.447 2.169-4.931 2.112-2.205-1.232-5.558-3.339-3.348z"/><path d="m194.18 130.649c2.955 9.004 14.041 7.229 17.628-.331.549-1.158.353-2.542-.838-3.227-4.954-2.862-12.267-2.435-16.258 1.95-3.887 4.261.259 10.089 5.311 10.598 4.312.429 8.142-3.009 9.632-6.761 2.262-5.703-3.824-8.54-8.415-8.97-1.056-.099-2.014.787-2.298 1.725-.989 3.257-1.051 6.683-1.062 10.063-.011 1.214 1.071 2.451 2.365 2.363 1.211-.082 2.474-.233 3.396-1.113.595-.567.941-1.608 1.609-2.024 2.583-1.615.212-5.704-2.386-4.078-.745.466-2.106 2.461-2.608 2.499.797.787 1.583 1.577 2.375 2.364.011-2.971.016-5.939.891-8.804-.766.573-1.521 1.15-2.298 1.724 1.92.18 4.647.584 3.866 2.986-.492 1.492-2.401 3.126-3.98 3.331-1.931.243-4.15-1.563-2.406-3.209 2.5-2.367 7.085-2.182 9.864-.579-.274-1.078-.563-2.152-.843-3.229-1.631 3.437-7.226 6.754-8.96 1.481-.953-2.873-5.543-1.657-4.585 1.241z"/><path d="m31.432 179.004c2.241.867 4.819 1.709 7.174.745 2.893-1.19 3.83-4.254 4.312-7.076.233-1.376-.352-2.396-1.651-2.906-7.624-2.99-13.405 1.846-12.53 9.786.119 1.084.631 1.944 1.734 2.281 4.425 1.339 8.985.893 12.437-2.35 2.148-2.02 3.929-6.165 1.667-8.721-2.821-3.175-7.966.331-10.341 2.324-4.549 3.803-6.03 9.209-5.522 14.959.109 1.247.983 2.408 2.371 2.367 7.448-.215 12.577-5.309 12.851-12.703.047-1.091-.75-1.939-1.734-2.279-5.403-1.868-11.562-1.131-15.206 3.625-1.563 2.038-3.67 6.011-2.94 8.663.916 3.326 5.465 2.833 7.981 2.695 3.043-.164 3.074-4.885.016-4.718-1.227.066-2.945.594-4.021-.265.202.766.398 1.537.605 2.295.952-6.741 5.688-10.033 12.297-7.75-.58-.761-1.165-1.519-1.739-2.28-.171 4.783-3.271 7.854-8.09 7.995.782.789 1.573 1.58 2.365 2.366-.311-3.461-.005-6.612 2.008-9.535.854-1.259 2.215-2.208 3.488-3.004.673-.425 1.397-.764 2.112-1.105.823-.399.756-.042.249-.297-.911-.456-.243-.834-.663.449-.249.752-.896 1.389-1.459 1.915-2.008 1.89-5.041 1.535-7.448.807.58.761 1.159 1.52 1.734 2.281-.192-1.709-.378-3.789.792-5.227 1.387-1.711 4.068-.674 5.714-.027-.554-.971-1.103-1.937-1.651-2.908-.155.93-.331 3.527-1.428 3.975-1.211.498-3.105-.498-4.208-.919-2.865-1.11-4.102 3.447-1.276 4.542z"/><path d="m203.17 185.942c-40.579 48.815-59.099 110.666-94.842 162.5-1.744 2.521 2.37 4.891 4.089 2.396 35.505-51.483 53.817-113.088 94.096-161.556 1.941-2.321-1.387-5.688-3.343-3.34z"/><path d="m227.035 175.026c-5.885.914-11.434 5.98-6.418 11.591 5.419 6.059 11.106-1.757 12.184-6.784.621-2.96-3.887-4.24-4.586-1.267-.668 2.847-1.951 7.308.518 9.705 2.143 2.081 5.311.39 7.339-.922 2.671-1.725 5.052-3.854 7.754-5.533 1.33-.827 1.765-.326 1.159-1.271.756 1.168-.378 4.43-.647 5.618 1.522.426 3.054.845 4.576 1.269.88-4.908 3.405-5.17 7.856-5.875-1.004-.766-1.998-1.527-3.002-2.287-.011 2.2-.011 4.403-.021 6.603-.006 2.637 4.026 3.261 4.658.642.455-1.848.916-3.623 2.241-5.072.574-.627.714 4.248.698 4.453-.072 1.113.792 1.91 1.739 2.281 8.027 3.12 15.201-.235 13.395-9.468-.522-2.669-4.647-1.987-4.668.612-.011 1.649.248 3.925-.637 5.414-.854 1.412.005 2.92 1.402 3.469 7.064 2.777 13.343.442 12.525-7.9-.259-2.558-3.861-3.329-4.663-.642-.56 1.884-.404 3.776-.963 5.657-.274.938.145 2.234 1.087 2.672 3.69 1.692 8.804 3.543 12.764 1.505 4.078-2.099 2.986-7.976 2.143-11.679-.233-1.014-1.263-1.732-2.277-1.735-1.273-.005-2.536-.011-3.799-.013-.979 0-2.122.708-2.299 1.728-2.521 14.201 16.221 16.575 25.755 11.411 5.108-2.769 5.32-9.164 5.569-14.276.398-8.109-.342-16.626-2.392-24.497-1.185-4.552-4.71-11.151-9.673-12.51-5.031-1.375-5.663 4.516-5.523 7.993.229 5.84 1.61 11.67 2.744 17.389 2.225 11.167 3.167 22.548 5.3 33.732.574 2.985 5.154 1.732 4.585-1.241-2.562-13.387-4.099-26.95-6.599-40.357-.756-4.091-1.594-8.371-1.242-12.544.108-1.19.688-.615-.605-.473.041-.005 1.045.774 1.346 1.031 1.837 1.625 3.483 3.609 4.363 5.904 2.044 5.34 2.51 11.387 2.856 17.035.326 5.268.513 10.986-.947 16.115-1.164 4.123-7.722 4.555-11.194 4.529-4.85-.032-10.797-2.164-9.767-7.98-.767.575-1.527 1.15-2.293 1.723 1.263.005 2.53.008 3.799.01-.761-.577-1.521-1.161-2.288-1.738.481 2.104.792 3.953.331 6.076-.403 1.911-7.458-.85-8.25-1.213.357.887.72 1.778 1.087 2.666.56-1.887.398-3.776.958-5.66-1.553-.209-3.101-.427-4.658-.642.145 1.508.631 3.894-1.278 4.516-1.584.517-3.789-.586-5.223-1.15.471 1.161.942 2.316 1.408 3.472 1.413-2.359 1.283-5.125 1.299-7.793-1.553.207-3.105.407-4.663.612 1.123 5.758-3.607 5.207-7.536 3.684.58.762 1.159 1.518 1.729 2.278.207-3.156-.207-9.418-4.798-9.431-4.611-.013-6.558 5.04-7.458 8.766 1.558.218 3.11.429 4.658.641.01-2.202.016-4.4.025-6.603.006-1.659-1.495-2.521-3.002-2.281-6.195.982-9.989 2.552-11.18 9.164-.522 2.949 3.897 4.269 4.581 1.266.698-3.098 1.91-7.473-.513-10.143-1.987-2.208-5.356-.546-7.339.688-2.702 1.678-5.083 3.818-7.759 5.544-.471.307-.993.646-1.526.855-.989.395-.254-.172.378.687-.699-.96.383-4.154.646-5.224-1.532-.427-3.054-.845-4.586-1.27-.341 1.622-1.599 7.078-4.233 4.728-2.613-2.341 2.991-3.506 4.307-3.713 3.013-.461 1.734-5.01-1.257-4.547z"/><path d="m252.06 112.261c-.533 4.455-.958 13.746 6.294 11.761 2.5-.681 4.674-2.612 6.661-4.163 1.506-1.166 4.42-4.424 6.506-4.238-.207-1.547-.414-3.092-.616-4.637-6.392 1.955-7.391 5.141-9.285 11.055-.646 2.017 1.724 3.668 3.473 2.675 1.688-.96 3.644-1.623 5.047-3.006 1.702-1.685 2.152-4.693 2.728-6.876.766-2.966-3.598-4.126-4.575-1.267-2.304 6.696-2.081 14.289-2.609 21.261-.341 4.399-.222 16.761-6.299 17.641.974.551 1.951 1.105 2.914 1.656-2.309-6.782 4.441-16.27 7.852-21.643 4.021-6.347 9.192-14.188 15.864-18.088-1.19-.682-2.376-1.365-3.566-2.046.088 3.318.616 6.431.057 9.751 1.553.215 3.105.427 4.664.642-.052-1.507-.332-3.585.383-4.999-.481.952-.958.072.621 1.18 2.251 1.579 4.146 3.629 6.382 5.244 6.614 4.788 10.604-.952 11.531-7.351.388-2.701-2.65-4.002-4.332-1.83-2.039 2.632-2.226 5.939-3.121 9.047-.439 1.545.771 2.895 2.282 2.992 4.374.282 8.587-.946 10.372-5.204 1.662-3.983-2.779-6.938-5.9-7.907-2.691-.834-3.984 2.857-1.848 4.306 5.078 3.439 12.318 5.668 15.134-1.57 2.484-6.388 1.139-13.575 1.797-20.234-1.553.207-3.111.412-4.669.612 1.615 4.385 1.33 8.729 1.512 13.306.232 5.965 2.35 11.392 5.289 16.534 1.512 2.641 5.626.278 4.104-2.372-2.966-5.191-4.591-10.21-4.705-16.173-.082-4.333-.098-8.407-1.614-12.537-.942-2.555-4.399-2.06-4.664.615-.455 4.618-.093 9.28-.48 13.905-.166 1.939-.456 4.461-1.766 6.018-1.801 2.135-6.02-1.15-7.525-2.174-.61 1.436-1.231 2.87-1.843 4.306 5.817 1.813-.191 4.043-3.178 3.848.761.999 1.517 1.998 2.277 2.994.767-2.673.886-5.662 2.635-7.923-1.449-.607-2.894-1.219-4.337-1.83-.274 1.938-.42 6.857-3.328 5.327-2.536-1.333-4.519-3.628-6.76-5.376-1.931-1.509-4.078-2.767-6.512-1.625-2.903 1.363-2.572 6.352-2.494 8.853.077 2.551 4.197 3.358 4.663.642.637-3.766.212-7.232.114-11.008-.047-1.765-1.978-2.976-3.566-2.045-7.737 4.521-13.524 13.379-18.188 20.738-3.99 6.289-10.398 16.476-7.722 24.314.455 1.333 1.567 1.854 2.913 1.656 7.133-1.031 8.385-10.258 9.172-15.919 1.18-8.59.223-17.99 3.059-26.271-1.521-.422-3.048-.847-4.58-1.267-.311 1.216-.596 4.2-1.719 5.035-1.133.837-2.624 1.335-3.851 2.03 1.159.89 2.318 1.78 3.479 2.673 1.319-4.126 1.382-6.37 5.962-7.77 2.655-.812 2.003-4.402-.621-4.638-3.447-.309-6.812 3.196-9.265 5.138-1.568 1.244-3.255 2.716-5.155 3.426-1.252.467-.429-6.097-.3-7.194.365-2.999-4.386-2.984-4.748 0z"/><path d="m318.392 107.184c3.96.92 7.971 1.049 12.019 1.062 3.063.008 3.074-4.708.016-4.719-3.629-.013-7.215-.066-10.761-.89-2.977-.695-4.256 3.849-1.274 4.547z"/><path d="m254.456 106.135c3.063.008 3.079-4.709.016-4.717-3.07-.009-3.075 4.709-.016 4.717z"/><path d="m103.406 352.075c2.21.124 3.768 2.236 6.029 2.467 3.312.339 4.089-4.529 4.446-6.721.248-1.561-.859-2.696-2.454-2.44-2.883.471-6.211.727-8.431 2.844-2.433 2.324-2.505 6.775-2.961 9.829-.207 1.423.839 2.888 2.443 2.438 2.696-.748 6.702-1.175 8.4-3.698 1.553-2.301.237-6.977.223-9.5-.006-1.18-1.279-2.391-2.511-1.917-2.345.908-5.14 1.472-7.215 2.932-2.257 1.6-3.188 4.472-4.182 6.907-.384.939.403 2.259 1.382 2.44 4.177.773 11.112 2.22 14.466-1.437 2.303-2.516.906-6.007-1.19-8.118-2.06-2.075-5.61-3.455-8.266-1.646-4.249 2.898-2.919 9.922-2.133 14.07.223 1.172 1.926 1.928 2.925 1.189 2.08-1.547 4.528-3.071 5.714-5.468 1.314-2.676.999-6.076 1.01-8.956.005-1.737-2.153-2.611-3.396-1.411-3.556 3.452-6.341 5.825-7.671 10.761-.445 1.669 1.397 3.129 2.925 2.244 1.733-1.007 4.053-1.628 5.574-2.948 1.558-1.354 1.889-4.919 2.489-6.702-.646.481-1.283.963-1.926 1.443.073 0 .146 0 .223.003 2.567.005 2.583-3.946.011-3.954-1.496-.003-2.997-.008-4.498-.013-1.056-.003-2.028.89-1.992 1.967.104 3.48.9 7.013 1.465 10.441.274 1.669 2.914 1.965 3.639.484 1.583-3.24 2.717-6.656 4.301-9.894.812-1.672-.492-3.165-2.241-2.917-2.898.409-6.278.549-8.623 2.511-1.895 1.586-2.764 4.798-3.99 6.853-.963 1.615.601 3.178 2.241 2.914 3.121-.505 6.826-.743 9.197-3.082 2.489-2.467 2.257-6.936 2.272-10.119.01-1.79-2.138-2.528-3.396-1.405-2.702 2.412-9.011 9.627-3.814 12.878 1.656 1.035 3.716.036 4.834-1.289 1.998-2.386 2.318-5.794 2.37-8.765.026-1.375-1.754-2.646-2.991-1.716-1.915 1.434-4.084 2.893-5.113 5.124-1.041 2.251-1.066 4.966-1.532 7.359-.259 1.294.905 3.08 2.442 2.443 2.309-.955 4.757-1.998 5.756-4.451.921-2.257 1.076-4.258 2.588-6.346 1.351-1.866-1.558-3.954-3.121-2.409-.916.903-1.89 1.493-2.862 2.313-2.147 1.804-3.763 4.143-5.704 6.154-1.785 1.834 1.021 4.645 2.806 2.805 1.755-1.809 3.256-3.858 5.067-5.618 1.087-1.04 2.401-1.765 3.504-2.847-1.046-.802-2.081-1.602-3.121-2.406-1.237 1.713-2.091 3.514-2.521 5.584-.419 2.031-1.491 2.594-3.437 3.396.812.817 1.625 1.628 2.438 2.44.403-2.053.58-4.164 1.103-6.19.439-1.741 2.37-2.932 3.706-3.931-.989-.574-1.988-1.146-2.981-1.721-.042 1.788-.135 3.659-.88 5.323-.554 1.222-1.025.729-.264 1.395-1.289-1.126 3.871-6.126 4.539-6.724-1.134-.474-2.268-.939-3.396-1.41-.016 2.21.409 5.83-1.346 7.562-1.521 1.512-5.228 1.512-7.194 1.83.75.971 1.496 1.94 2.241 2.911 1.081-1.804 1.796-4.27 3.173-5.859 1.324-1.531 5.269-1.443 7.06-1.691-.751-.974-1.496-1.946-2.241-2.914-1.584 3.234-2.728 6.658-4.307 9.896 1.217.163 2.428.321 3.645.484-.513-3.083-1.228-6.255-1.331-9.387-.667.663-1.33 1.32-1.997 1.972 1.495.006 3.002.011 4.497.016 2.567.006 2.578-3.946.011-3.954-.072 0-.155 0-.228 0-.916 0-1.641.605-1.921 1.444-.414 1.237-.802 2.484-1.164 3.734-.104.38-.756 1.741-.295 1.227.187-.212-.9.357-1.206.489-1.237.52-2.407 1.172-3.566 1.843.974.747 1.951 1.49 2.919 2.24 1.139-4.213 3.603-6.07 6.641-9.014-1.133-.468-2.271-.938-3.395-1.407-.006 2.316.217 4.847-.523 7.083-.554 1.677-2.908 2.961-4.223 3.934.973.394 1.945.792 2.924 1.19-.471-2.481-1.672-7.494.357-9.627.305-.315.719-.35 1.227-.233.734.166 1.382.575 1.967 1.095.579.516 1.103 1.235 1.299 1.775.264.748.176.82-.062 1.077-1.977 2.16-8.027.711-10.434.267.46.817.921 1.625 1.382 2.438.605-1.473 1.231-3.758 2.624-4.746 1.672-1.178 4.094-1.609 5.983-2.334-.839-.643-1.683-1.278-2.516-1.918.01 2.29.704 5.215.357 7.37-.125.737-4.835 1.689-6.046 2.029.808.814 1.631 1.627 2.443 2.442.372-2.528.419-5.758 1.837-7.983 1.041-1.638 5.135-1.666 6.771-1.931-.818-.817-1.631-1.63-2.443-2.442-.181 1.128-.248 3.002-.999 3.949.373-.475.146-.238-.72-.771-1.558-.952-3.053-1.713-4.911-1.822-2.567-.155-2.562 3.805-.005 3.954z"/><path d="m104.312 346.775c-6.216 1.232-12.375 2.684-18.529 4.192-2.484.611-1.444 4.431 1.051 3.817 6.148-1.509 12.313-2.958 18.524-4.192 2.52-.498 1.458-4.316-1.046-3.817z"/><path d="m101.444 353.846c-4.048 1.429-7.386 4.203-11.413 5.626-2.391.849-1.376 4.679 1.046 3.819 4.048-1.431 7.386-4.205 11.412-5.631 2.403-.848 1.377-4.674-1.045-3.814z"/><path d="m103.096 356.17c-2.862 4.241-5.72 8.478-8.582 12.717-1.434 2.127 2.009 4.114 3.432 2.008 2.862-4.239 5.725-8.476 8.581-12.712 1.433-2.127-2.013-4.121-3.431-2.013z"/></g></svg>