<?xml version="1.0" encoding="utf-8"?>
<!-- Generator: Adobe Illustrator 16.0.0, SVG Export Plug-In . SVG Version: 6.00 Build 0)  -->
<!DOCTYPE svg PUBLIC "-//W3C//DTD SVG 1.1//EN" "http://www.w3.org/Graphics/SVG/1.1/DTD/svg11.dtd">
<svg version="1.1" id="Layer_1" xmlns="http://www.w3.org/2000/svg" xmlns:xlink="http://www.w3.org/1999/xlink" x="0px" y="0px"
	 width="390.833px" height="126.333px" viewBox="0 15.413 390.833 126.333" enable-background="new 0 15.413 390.833 126.333"
	 xml:space="preserve">
<ellipse transform="matrix(0.0129 -0.9999 0.9999 0.0129 -1.347 162.0178)" fill="#0F493F" cx="81.387" cy="81.691" rx="22.295" ry="21.389"/>
<g>
	<path d="M113.141,118.473c0.627,1.729,1.125,3.467,1.873,5.088c2.032,4.407,5.433,7.35,9.996,8.972
		c3.219,1.145,6.449,1.298,9.68,0.097c3.672-1.365,5.987-4.096,7.293-7.671c2.005-5.488,1.523-11.24,1.548-16.923
		c0.012-2.617-0.176-5.234-0.282-8.102c-0.452,0.178-0.813,0.274-1.126,0.453c-3.575,2.027-7.47,3-11.51,3.422
		c-6.898,0.721-12.407-2.129-16.922-7.043c-3.509-3.817-5.566-8.35-5.832-13.637c-0.378-7.525,1.281-14.384,6.544-20.01
		c2.822-3.017,6.366-4.869,10.501-5.429c1.652-0.224,3.321-0.444,4.981-0.443c3.993,0.003,7.627,1.304,11.019,3.35
		c0.421,0.255,0.86,0.475,1.628,0.898c0.011-1.543,0.02-2.743,0.029-4.061c1.479,0.011,2.812,0.02,4.298,0.031
		c0.03,0.347,0.098,0.746,0.095,1.145c-0.131,20.05-0.197,40.101-0.45,60.149c-0.065,5.234-1.538,10.179-5.194,14.173
		c-2.293,2.506-5.336,3.769-8.622,4.02c-8.945,0.682-17.55-3.43-21.803-11.887c-0.839-1.666-1.364-4.068-1.712-6.394
		 M142.396,80.874c0.029-3.937-0.089-7.879,0.131-11.803c0.182-3.23-1.521-4.927-4.1-6.219c-2.685-1.346-5.566-1.73-8.509-1.908
		c-3.999-0.24-7.738,0.434-11.096,2.793c-4.542,3.192-6.59,7.856-7.261,13.063c-0.736,5.71,0.314,11.188,3.596,16.108
		c3.118,4.674,7.431,7.279,13.031,7.521c4.911,0.213,9.026-2.02,13-4.604c0.864-0.562,1.139-1.18,1.135-2.165
		C142.309,89.398,142.366,85.136,142.396,80.874z"/>
	<path d="M49.943,104.996c-0.01-1.215,0.005-2.883,0.017-4.484c-1.48,0.881-2.948,1.776-4.626,2.61
		c-4.227,2.158-9.132,2.584-13.711,1.526c-7.801-1.803-12.031-6.154-14.753-12.981c-1.844-4.621-2.1-9.449-1.45-14.224
		c1.01-7.429,4.179-13.378,11.111-17.377c4.928-3.07,10.106-3.12,14.741-2.195c2.488,0.496,4.621,1.201,6.896,2.042
		c2.413,0.925,2.088,1.333,2.079,1.164c0.014-1.972,0.03-3.588,0.038-5.204c0.041-9.031,0.079-18.063,0.122-27.094
		c0.008-1.763,0.016-1.763,1.841-1.753c0.691,0.004,1.383,0.01,2.203,0.016c0.024,0.609,0.062,1.091,0.059,1.571
		c-0.265,35.184-0.458,60.251-0.582,76.369 M50.104,80.756c0.032-4.38,0.048-8.761,0.108-13.141
		c-0.082-1.416,0.221-1.676-0.545-2.286c-2.219-1.922-4.901-2.896-7.724-3.646c-3.594-1.078-7.431-1.075-10.945,0.279
		c-7.545,2.906-10.516,9.028-11.708,16.167c-0.547,3.271-0.471,6.612,0.385,9.917c1.074,4.145,2.955,7.771,6.514,10.414
		c3.79,2.812,8.122,3.262,12.789,2.949c4.763-0.319,7.927-2.815,10.694-6.126c0.279-0.333,0.318-0.917,0.324-1.388
		C50.05,89.518,50.073,85.137,50.104,80.756z"/>
	<path d="M370.337,98.77c-3.518,3.45-6.617,5.275-10.84,6.293c-3.873,0.933-8.781,1.051-12.615-0.726
		c-3.852-1.782-6.549-4.663-8.232-8.537c-1.045-2.409-1.525-4.94-1.467-7.579c0.186-8.008,0.355-19.016,0.527-27.022
		c0.039-1.752,2.156-1.819,4.172-1.713c0.02,2.638,0.119,5.292,0.045,7.94c-0.166,5.992-0.539,14.979-0.596,20.972
		c-0.035,3.984,0.5,5.832,3.5,10.166c1.871,2.703,7.209,4.136,11.666,3.666c3.977-0.418,6.775-1.504,9.863-4.205
		c2.605-2.275,4.285-5.002,4.258-8.642c-0.062-7.956-0.17-19.913-0.072-27.87c0.035-2.867,1.619-2.13,3.91-2.367
		c0.053,5.022-0.168,13.004-0.213,17.994c-0.07,7.674-0.312,15.346-0.379,23.021c-0.055,5.897,0.133,11.797,0.061,17.694
		c-0.084,6.77-1.676,12.985-7.223,17.47c-2.006,1.62-4.336,2.622-6.891,2.907c-2.057,0.23-4.139,0.408-6.201,0.332
		c-6.736-0.252-13.064-5.11-15.182-11.598c-0.613-1.881-1.07-3.82-1.518-5.751c-0.16-0.692-0.117-1.577,0.959-1.373
		c0.854,0.164,2.082-0.796,2.455,1.063c1.338,8.156,5,11.352,11.172,13.656c3.119,1.164,6.334,0.918,9.541-0.117
		c3.611-1.17,5.965-3.68,7.482-7.066c1.229-2.744,1.836-5.645,1.869-8.661c0.061-5.993,0.127-11.985,0.176-17.979
		C370.572,100.2,370.445,99.665,370.337,98.77z"/>
	<path d="M189,68.895c0,0-1.225,0.666-3.833,0.667c-1.513-4.537-4.518-7.101-10.317-7.651c-2.562-0.244-5.017-0.099-7.59,0.03
		c-4.75,0.842-7.952,2.005-9.509,5.871c-1.949,4.842,0.141,9.145,5.5,10.833c2.599,0.82,5.094,1.086,7.917,1.25
		c4.176,0.241,9.655,1.763,13.012,3.875c3.354,2.11,4.719,5.74,3.618,9.307c-1.641,5.318-6.312,9.561-10.553,10.803
		c-6.517,1.571-11.634,1.299-17.757-0.847c-3.582-1.257-4.996-4.087-5.733-7.183c-0.054-0.229,0.042-0.689,0.134-0.703
		c1.203-0.157,1.992-0.088,3.205-0.097c1.12-0.008,0.944,0.806,1.075,1.429c0.444,2.119,1.417,2.416,4.417,3.582
		c6.343,1.252,9.523,1.42,14.917-0.166c3.864-1.562,5.346-3.383,6.391-6.859c1.005-3.348,0.154-5.401-3.058-7.475
		c-1.322-0.853-3.763-1.311-5.417-1.582c-2.432-0.4-6.19-0.845-8.667-1.084c-4.75-0.5-7.333-1.166-10.667-4.582
		c-4.667-4.75-3.502-12.393,2.543-16.41c3.709-2.465,8.164-3.751,12.874-3.841c4.433-0.087,6.603,0.542,10.506,2.505
		C186.694,62.924,188.937,66.963,189,68.895z"/>
</g>
<ellipse transform="matrix(0.0129 -0.9999 0.9999 0.0129 176.3388 340.6792)" fill="#0F493F" cx="260.721" cy="81.025" rx="22.295" ry="21.389"/>
<path d="M197.344,103.98c-0.125-16.117-0.317-41.186-0.582-76.369c-0.003-0.479,0.035-0.961,0.059-1.57
	c0.82-0.006,1.512-0.012,2.203-0.016c1.825-0.01,1.833-0.01,1.841,1.752c0.043,9.031,0.081,18.063,0.122,27.095
	c0.008,1.616,0.024,3.231,0.038,5.204c-0.009,0.17-0.333-0.238,2.079-1.164c2.275-0.84,4.408-1.545,6.896-2.041
	c4.634-0.925,9.812-0.875,14.741,2.195c6.933,3.998,10.101,9.947,11.111,17.377c0.65,4.774,0.394,9.603-1.45,14.224
	c-2.722,6.827-6.952,11.179-14.753,12.981c-4.579,1.058-9.484,0.632-13.711-1.526c-1.679-0.834-3.146-1.729-4.626-2.61
	c0.012,1.602,0.027,3.27,0.017,4.484 M201.275,92.896c0.006,0.471,0.045,1.055,0.324,1.388c2.767,3.311,5.931,5.807,10.694,6.126
	c4.667,0.312,8.999-0.137,12.789-2.949c3.559-2.643,5.44-6.27,6.514-10.414c0.856-3.305,0.932-6.646,0.385-9.917
	c-1.192-7.139-4.163-13.261-11.708-16.167c-3.514-1.354-7.351-1.357-10.945-0.279c-2.823,0.75-5.505,1.725-7.724,3.646
	c-0.766,0.609-0.463,0.869-0.545,2.285c0.06,4.38,0.076,8.761,0.108,13.141C201.198,84.137,201.221,88.518,201.275,92.896z"/>
<path d="M323.61,105.663c-0.01-1.215,0.006-2.883,0.018-4.484c-1.48,0.881-2.948,1.776-4.627,2.61
	c-4.227,2.158-9.133,2.584-13.711,1.526c-7.802-1.803-12.031-6.154-14.754-12.981c-1.844-4.621-2.1-9.449-1.449-14.224
	c1.01-7.43,4.178-13.379,11.111-17.377c4.928-3.07,10.105-3.12,14.74-2.195c2.488,0.496,4.621,1.201,6.896,2.041
	c2.412,0.926,2.088,1.334,2.078,1.164c0.014-1.973,0.03-3.588,0.039-5.204c0.041-9.031,0.078-18.063,0.121-27.095
	c0.008-1.762,0.016-1.762,1.842-1.752c0.69,0.004,1.383,0.01,2.203,0.016c0.023,0.609,0.062,1.091,0.059,1.57
	c-0.266,35.184-0.458,60.252-0.582,76.369 M323.771,81.423c0.032-4.38,0.048-8.761,0.108-13.141
	c-0.082-1.416,0.221-1.676-0.545-2.285c-2.219-1.922-4.901-2.896-7.725-3.646c-3.594-1.078-7.431-1.074-10.945,0.279
	c-7.545,2.906-10.516,9.028-11.707,16.167c-0.547,3.271-0.472,6.612,0.385,9.917c1.074,4.145,2.955,7.771,6.514,10.414
	c3.79,2.812,8.122,3.262,12.789,2.949c4.764-0.319,7.927-2.815,10.693-6.126c0.279-0.333,0.318-0.917,0.324-1.388
	C323.717,90.185,323.741,85.804,323.771,81.423z"/>
</svg>
