<svg height="254" viewBox="0 0 781 254" width="781" xmlns="http://www.w3.org/2000/svg"><g fill="none" fill-rule="evenodd"><g fill-rule="nonzero" transform="translate(33.25 20.75)"><ellipse cx="89.805131" cy="75.407001" fill="#0f493f" rx="30.186524" ry="28.934082" transform="matrix(.01290021 -.99991679 .99991679 .01290021 13.2459 164.231893)"/><g fill="#000" transform="translate(0 1)"><path d="m132.762964 124.141929c.848192 2.3465 1.521875 4.705214 2.533753 6.905142 2.748844 5.980929 7.349641 9.975 13.522366 12.176286 4.354592 1.553929 8.724064 1.761572 13.094889.131643 4.9674-1.8525 8.099081-5.558857 9.865809-10.410643 2.712319-7.448 2.06028-15.254286 2.0941-22.966928.016233-3.551643-.238089-7.103286-.381484-10.9955719-.611455.2415715-1.099808.3718572-1.523228.6147858-4.83618 2.7509281-10.10525 4.0714281-15.570472 4.6441431-9.331461.9785-16.783914-2.889357-22.891705-9.5583574-4.746898-5.1802143-7.529561-11.3321429-7.8894-18.5073572-.51135-10.2125 1.732908-19.5211428 8.852577-27.1564285 3.817539-4.0945 8.611784-6.6079286 14.20552-7.3679286 2.234789-.304 4.492575-.6025714 6.738186-.6012189 5.401642.004076 10.317636 1.7697189 14.906258 4.5464332.56952.3460714 1.163389.6446428 2.202323 1.2187143.01488-2.0940715.027055-3.7226429.03923-5.5113572 2.000758.0149286 3.804011.0271429 5.814239.0420714.040583.4709286.132572 1.0124286.128644 1.5539286-.177344 27.2107143-.266627 54.4227857-.60888 81.6307853-.087931 7.103286-2.080572 13.814358-7.026328 19.234786-3.101919 3.401-7.218422 5.115072-11.66365 5.455714-12.100597.925572-23.74125-4.655-29.494614-16.132357-1.13498-2.261-1.845189-5.520857-2.315955-8.677571m44.943336-51.2959287c.03923-5.3430714-.120397-10.6929286.177214-16.0183572.246205-4.3835714-2.057575-6.6866428-5.546389-8.4400714-3.632209-1.8267143-7.529561-2.3478571-11.510786-2.5894286-5.409759-.3257142-10.467795.589-15.010423 3.7905-6.144316 4.332-8.914805 10.6617143-9.822519 17.7283572-.995644 7.7492857.424772 15.1837143 4.864589 21.8608571 4.217961 6.3432857 10.052492 9.8786429 17.628047 10.2070715 6.643492.2890714 12.210172-2.7414286 17.586111-6.2482858 1.1688-.7627142 1.540814-1.6014285 1.535403-2.9382142-.018939-5.7841429.058169-11.5682858.098753-17.3524286z"/><path d="m47.2701139 105.851714c-.0135278-1.648928.0067639-3.912643.0229972-6.0854283-2.0021111 1.1956433-3.9879889 2.4102853-6.25795 3.5421433-5.7181917 2.928714-12.3535667 3.506857-18.5479361 2.071-10.5530194-2.446929-16.27526944-8.3518576-19.95753056-17.6170719-2.49452222-6.2713571-2.84083333-12.8236428-1.96152777-19.304 1.36630555-10.0822142 5.65325833-18.1558571 15.03071393-23.5830714 6.6664888-4.1664286 13.6711722-4.2342857 19.9412972-2.9789286 3.3657111.6731429 6.2511861 1.6299286 9.3287555 2.7712858 3.2642528 1.2553571 2.8246 1.8090714 2.812425 1.5797142.0189389-2.6762857.0405834-4.8694285.0514056-7.0625714.0554639-12.2563571.1068694-24.5140714.1650389-36.77042856.0108222-2.39264285.0216444-2.39264285 2.4904639-2.37907143.9347694.00542858 1.8708916.01357143 2.9801694.02171429.0324667.8265.0838722 1.48064286.0800404 2.13207143-.3587126 47.74971427-.6197987 81.76921427-.7875432 103.64364257m-5.1730222-32.8781426c.0432889-5.9442857.0649333-11.8899285.1461-17.8342143-.1109278-1.9217142.2989639-2.2745714-.7372639-3.1024285-3.0018139-2.6084286-6.6299639-3.9302857-10.4488555-4.9481429-4.8618834-1.463-10.0524917-1.4589286-14.8061528.3786429-10.2067083 3.9438571-14.22581112 12.2522857-15.83832223 21.9409285-.73996945 4.4392143-.63715834 8.9734286.52081944 13.4587858 1.45288333 5.6253571 3.99745829 10.5463571 8.81199449 14.1332857 5.1270277 3.8162854 10.9872611 4.4270004 17.300675 4.0022144 6.4432805-.432929 10.7234694-3.8203573 14.4666055-8.3138573.377425-.4519286.4301833-1.2445.4383-1.8837143.07305-5.9402143.1041639-11.8858571.1461-17.8315z"/><path d="m480.691997 97.4021429c-4.759072 4.6821431-8.95133 7.1589281-14.664111 8.5405001-5.239308 1.266214-11.878742 1.426357-17.065292-.985286-5.2109-2.418428-8.859341-6.328357-11.136066-11.5859284-1.413653-3.2693572-2.062986-6.7042857-1.984525-10.2857857.251616-10.868.480236-25.8074286.712914-36.6727143.052758-2.3777143 2.916589-2.4686429 5.643789-2.3247857.027055 3.5801428.16098 7.182.060875 10.7757142-.224562 8.132-.729148 20.3286429-.806256 28.462-.047347 5.4068572.676389 7.9148572 4.734722 13.7967143 2.531047 3.6683576 9.752175 5.6131426 15.781506 4.9752856 5.379997-.567286 9.165069-2.041143 13.342447-5.7067856 3.523986-3.0875 5.796653-6.7884285 5.760128-11.7284285-.083872-10.7974286-.229972-27.0247858-.0974-37.8235715.047347-3.8909285 2.190147-2.8907143 5.289361-3.2123571.071697 6.8155714-.227267 17.6482857-.288142 24.4204286-.094694 10.4147142-.422066 20.8267142-.512703 31.2427857-.074402 8.0030714.17992 16.0102144.08252 24.0132854-.113633 9.187857-2.267256 17.6225-9.771114 23.709286-2.713672 2.198571-5.865644 3.558429-9.321992 3.945214-2.782664.312143-5.599147.553715-8.388575.450572-9.112311-.342-17.672689-6.935-20.537872-15.740143-.829253-2.552786-1.447472-5.184286-2.053517-7.804929-.216444-.939143-.158275-2.140214 1.297314-1.863357 1.155273.222572 2.816484-1.080286 3.32107 1.442643 1.810016 11.068857 6.763889 15.406286 15.113233 18.533143 4.219314 1.579714 8.568495 1.245857 12.906853-.158786 4.88488-1.587857 8.069319-4.994286 10.121483-9.589571 1.662564-3.724 2.4837-7.661072 2.528342-11.754215.082519-8.133357.171803-16.265357.238089-24.400071.010822-.7301429-.160981-1.4562143-.307081-2.6708571z"/><path d="m235.383333 58.0501811s-1.657152.8817846-5.185197.8831086c-2.046753-6.0069918-6.11185-9.4017299-13.956608-10.1299304-3.465817-.3230562-6.786886-.1310761-10.267584.0397201-6.425694 1.1148087-10.757288 2.6546216-12.863563 7.7732088-2.636564 6.410812.190741 12.1079876 7.440277 14.342901 3.51587 1.0856807 6.89105 1.4378649 10.709942 1.6550011 5.6492.3190842 13.061069 2.3342134 17.602344 5.1305032 4.537217 2.7936417 6.383759 7.5997647 4.89435 12.3224757-2.219908 7.0410364-8.538733 12.6587718-14.275863 14.3031808-8.816053 2.080005-15.738217 1.719877-24.021275-1.121429-4.84565-1.664269-6.758478-5.4111909-7.755475-9.5102975-.07305-.3031962.056816-.9122366.181272-.9307726 1.627391-.2078681 2.694733-.116512 4.335653-.1284281 1.515111-.010592 1.277022 1.0671447 1.454236 1.8919972.600633 2.8055578 1.916886 3.198786 5.975219 4.742571 8.58067 1.657649 12.882503 1.880081 20.179386-.2197841 5.227134-2.0680893 7.23195-4.4790948 8.645603-9.0813217 1.359542-4.4327548.208328-7.1509285-4.136794-9.8969062-1.788373-1.1293727-5.090503-1.7357651-7.327998-2.0945693-3.289955-.5296004-8.373694-1.1187807-11.724525-1.4352169-6.425694-.6620005-9.919919-1.543785-14.43008-6.0665719-6.313414-6.2890039-4.737428-16.4083422 3.440114-21.7268536 5.017452-3.263662 11.044077-4.9663271 17.415661-5.0854872 5.996864-.115188 8.932391.7176085 14.212283 3.3166221 6.339117 3.12067 9.373397 8.4683093 9.458622 11.0262789z"/></g><ellipse cx="332.403201" cy="74.508962" fill="#0f493f" rx="30.186524" ry="28.934082" transform="matrix(.01290021 -.99991679 .99991679 .01290021 253.612368 405.923322)"/><g fill="#000"><path d="m246.783049 105.697703c-.168089-21.8523554-.426274-55.8423464-.782848-103.54547984-.003809-.64945573.04729-1.30297903.079564-2.12869623 1.102663-.00813515 2.033204-.01627029 2.9624-.02169372 2.454099-.01355858 2.464857-.01355858 2.475615 2.37546229.057822 12.2447488.108921 24.4908535.164054 36.7369582.010758 2.1910657.032273 4.3807755.051099 7.0558823-.012102.2304958-.447789-.3226941 2.795657-1.5782181 3.059219-1.1389203 5.92749-2.0947998 9.273133-2.7673051 6.231395-1.2541681 13.194313-1.1863753 19.822398 2.9761072 9.322888 5.4207181 13.582935 13.4867143 14.941095 23.5607353.874062 6.4728636.529816 13.0202993-1.949833 19.2857167-3.660306 9.2564389-9.348437 15.157131-19.838535 17.600386-6.157436 1.434497-12.753248.856902-18.437345-2.069039-2.257771-1.130785-4.230464-2.344277-6.220637-3.5387877.016136 2.1720837.036307 4.4336537.02286 6.0796647m-.072615-15.0500177c.008069.6386088.060512 1.4304296.435687 1.8819301 3.720818 4.4892441 7.975486 7.8734646 14.380349 8.3059826 6.275771.423028 12.101063-.185752 17.197521-3.9984234 4.78583-3.5835313 7.315233-8.5012263 8.759454-14.1198997 1.151073-4.4811089 1.253271-9.0110287.517714-13.4460385-1.602897-9.6794665-5.598036-17.980026-15.743888-21.9201478-4.725317-1.835831-9.884977-1.8398986-14.717871-.3782842-3.796122 1.0168931-7.40264 2.3388541-10.386555 4.9434563-1.03005.8257172-.622602 1.1782401-.732868 3.0981343.080682 5.9386558.102198 11.8786674.145229 17.8173231.041686 5.9400116.072614 11.8800232.145228 17.8159672z"/><path d="m416.859578 107.719396c-.013447-1.647367.008069-3.908937.024205-6.079665-1.990189 1.194511-3.964243 2.408003-6.222032 3.538788-5.684144 2.925941-12.281354 3.503536-18.437496 2.069039-10.491528-2.444611-16.178361-8.3439471-19.840041-17.600386-2.479669-6.2654174-2.823918-12.8114973-1.948504-19.2857167 1.35817-10.074021 5.618253-18.1400172 14.941216-23.5607353 6.626795-4.1624825 13.588425-4.2302753 19.821216-2.9761072 3.34567.6725053 6.213964 1.6283848 9.273209 2.7673051 3.243471 1.255524 2.807781 1.8087139 2.794334 1.5782181.018826-2.6751068.040341-4.8648166.052444-7.0558823.055134-12.2447488.104888-24.4908535.162711-36.7369582.010758-2.38902087.021516-2.38902087 2.47698-2.37546229.927859.00542343 1.859752.01355857 2.962424.02169372.030929.8257172.083373 1.4792405.079559 2.12869623-.357916 47.70448934-.616103 81.69312444-.782849 103.54547984m-5.140875-32.8442919c.043031-5.9386557.064546-11.8786673.14523-17.8173231-.110267-1.9198942.297184-2.2724171-.732874-3.0981343-2.98394-2.6059581-6.590487-3.9265632-10.387984-4.9434563-4.832934-1.4616144-9.992636-1.456191-14.717992.3782842-10.145934 3.9401218-14.141106 12.2406813-15.742671 21.9201478-.735563 4.4350098-.634709 8.9649296.517718 13.4460385 1.444233 5.6200292 3.973656 10.5363684 8.759525 14.1198997 5.0965 3.8126714 10.921839 4.4228074 17.197661 3.9984234 6.40626-.432518 10.659618-3.8167385 14.379122-8.3059826.375177-.4515005.427622-1.2433213.43569-1.8819301.07396-5.935944.106233-11.8759556.146575-17.8159672z"/></g></g><g fill="#010101" fill-rule="nonzero" transform="translate(553.25 20.75)"><path d="m115.111731 2.22729236c-.758654-.25195124-1.51371-.50897957-2.274935-.76346935 1.513711 18.62090959 2.22405 37.86059099 7.722751 55.52256279.553057 1.7846017 2.918455 1.0173245 2.35409-.7875856-5.426742-17.4265211-6.142221-36.3526915-7.632288-54.72482299-.1249-1.49584144-1.551232-2.0314758-2.274935-.76283471-8.010073 14.0413627-8.260661 37.0630712-11.006414 53.2888575-.318676 1.8855091 1.68338 1.8899516 2 0 2.697437-15.9433724 3.245062-37.978219 11.111731-51.77270764z"/><path d="m125.013808 55.7971621c2.041281-17.5056784 3.994691-36.9077493 12.544808-52.42833082-.916016-.12969658-1.825711-.25804916-2.741727-.38774574 4.754561 19.81669676 8.170182 39.98014706 8.185987 60.47959886 0 2.0462492 2.997124 2.0549852 2.997124.0107521-.013276-20.7716131-3.468092-41.2468728-8.283973-61.32363469-.321143-1.33526998-2.093752-1.55971898-2.74552-.38640173-8.837123 16.04339982-10.843003 35.93065692-12.956984 54.02433792-.238961 2.0260891 2.765117 2.011977 3.000285.0114241z"/><path d="m103.494566 53.0004902c-38.060995.8272144-61.5754482 37.4610918-97.36091463 44.8979379-1.97817706.4088918-1.15059251 3.4718759.81705883 3.0643309 35.4381177-7.3634208 59.0374345-43.970353 96.5366198-44.7840948 2.009096-.0444595 2.022253-3.2239806.007236-3.178174z"/><path d="m7.48590301 104.802224c38.42973159 3.39243 77.41898559-2.526996 115.55647799 4.167233 1.960956.345344 2.807463-2.34455.833374-2.691671-38.4330156-6.7481343-77.6613144-.852403-116.37934453-4.269712-1.99838808-.177114-1.98853733 2.616442-.01050746 2.79415z"/><path d="m92.5090644 63.5288849c-1.6103559 1.7553703-2.4102667 3.6181675-2.5078853 6.0385616-.0365192.9500339.7809489 1.7151766 1.6644324 1.7312541 3.7263623.0599252 7.3965412.6233683 11.1123695-.0277703 1.058354-.1878144 1.534508-1.6479434 1.003575-2.5314749-1.417928-2.3736231-3.8935077-4.3979261-6.7651804-3.698555-2.8534131.6935247-4.5037997 3.2761553-4.958885 6.1445269-.1306264.8382222.192428 1.9673009 1.1559729 2.1244219 2.0829985.3347043 3.9876149.4662474 5.954033-.4150917 1.8610745-.838953 2.8105735-3.0656863 3.4468495-4.8970593.334292-.9588035-.366596-1.7933717-1.160186-2.1251528-2.482603-1.0435756-5.0747634-1.3899726-7.5573663-.181968-2.4025415 1.1700033-3.1546964 4.1487249-3.2382692 6.6378137-.0695269 2.2245409 3.2635518 2.2289257 3.3365902.0124236.1383515-4.3197311 3.2965594-4.516315 6.5615153-3.145343-.385558-.7096023-.7711164-1.4162813-1.1559725-2.1251528-.9881251 2.8457169-2.5113968 3.3689664-5.2882601 2.9180657.3813447.7052174.7669031 1.4155505 1.155973 2.1251527.5639406-3.5575115 3.5297204-5.1477221 5.6274676-1.6428278.330779-.8447994.66507-1.6844832.999361-2.5270902-3.3773228.5934058-6.8262796-.0387321-10.22116-.0957342.5520017.5773283 1.1082171 1.156849 1.6567073 1.7312541.0618017-1.5003227.5309328-2.5190514 1.5232717-3.6035516 1.483241-1.6114037-.865224-4.0617603-2.3449536-2.4467027z"/><path d="m112.58168 69.7058548c1.717981 6.2785775 8.163171 5.0408526 10.248584-.2308095.319178-.8074847.205228-1.7725615-.487197-2.2502187-2.880161-1.9957007-7.1318-1.6979494-9.452092 1.3597541-2.259828 2.9712371.150578 7.0351586 3.087714 7.3900893 2.506915.2991459 4.733604-2.0982052 5.599862-4.7145116 1.315084-3.9767578-2.223201-5.9550257-4.892321-6.2548689-.613938-.0690337-1.170901.5487828-1.336013 1.2028594-.574986 2.271138-.611032 4.6601214-.617427 7.0170285-.006395.8465341.622659 1.7091063 1.374966 1.6477431.704052-.0571794 1.438337-.1624732 1.97437-.7761058.345922-.3953747.547079-1.1212742.935442-1.4113551 1.501707-1.1261553.123253-3.9774551-1.387175-2.8436293-.433129.3249463-1.224388 1.7160794-1.516242 1.7425772.463361.5487828.920326 1.0996575 1.38078 1.6484403.006395-2.0717074.009302-4.1413229.518011-6.1391155-.445338.3995585-.884281.8019063-1.336014 1.2021621 1.116252.1255158 2.701677.407229 2.247619 2.0821671-.28604 1.0403862-1.395896 2.1797904-2.313896 2.3227389-1.122647.1694463-2.412731-1.0898952-1.398803-2.2376671 1.453452-1.6505323 4.119084-1.52153 5.734742-.4037424-.159298-.7516999-.327318-1.5006107-.490104-2.2516133-.948233 2.3966538-4.201059 4.7096304-5.209174 1.0327158-.554056-2.0033711-3.222595-1.1554424-2.665632.8653614z"/><path d="m4.8515397 101.551191c1.44442798.560704 3.10606802 1.10524 4.62397427.481805 1.86467213-.769594 2.46861183-2.7511364 2.77928313-4.576173.1501792-.8898833-.2268803-1.5495351-1.0641458-1.879361-4.91402001-1.9336852-8.64014146 1.1938405-8.07616355 6.328777.07670099.701042.40670864 1.257219 1.11764307 1.475163 2.85211683.865954 5.79124738.577518 8.01622078-1.519786 1.3844852-1.30637 2.532422-3.9870136 1.0744585-5.6400234-1.8182648-2.0533279-5.13445484.2140635-6.66525202 1.5029714-2.93204056 2.459467-3.88661345 5.955621-3.55918399 9.674247.07025554.806456.6335889 1.557295 1.52821899 1.53078 4.80057993-.139045 8.10645732-3.433423 8.28306292-8.215252.0302937-.705569-.4834096-1.2539853-1.1176431-1.4738693-3.48248296-1.2080682-7.45224287-.7314374-9.80096914 2.3443513-1.00742567 1.31801-2.36548447 3.887418-1.89496576 5.602513.5904043 2.150982 3.52244486 1.83215 5.14412304 1.742903 1.96135402-.106061 1.98133495-3.159214.01031274-3.051213-.79085816.042684-1.89818849.384151-2.59172018-.17138.13019833.495386.25652938.994005.38995044 1.484217.61360796-4.359522 3.66617865-6.488516 7.92598436-5.01206-.3738368-.492152-.7508963-.982364-1.12086582-1.474516-.1102174 3.093249-2.10831055 5.079319-5.21437858 5.170506.50403511.51026 1.01387114 1.021813 1.52435171 1.530133-.20045386-2.238289-.00322273-4.276095 1.29424873-6.166451.55044243-.814217 1.42766978-1.4279518 2.24817706-1.9427389.4337796-.2748549.900431-.4940921 1.3612815-.7146228.5304615-.2580402.4872769-.0271621.160492-.192075-.5871815-.2949032-.1566247-.5393624-.4273341.2903761-.160492.4863315-.5775134.8982906-.94039286 1.2384639-1.29424872 1.2222957-3.24915728.9927117-4.80057993.5219007.37383678.492152.74702902.983011 1.11764307 1.475163-.12375286-1.10524-.24363845-2.4504126.51048057-3.3803923.89398555-1.1065336 2.62201385-.4358876 3.68293685-.0174614-.3570786-.6279626-.71093442-1.2526917-1.06414573-1.8806544-.09990465.6014473-.21334478 2.2809725-.92041194 2.570702-.78054542.3220652-2.00131588-.3220653-2.71225031-.5943334-1.8466248-.7178564-2.64392842 2.2292355-.82244092 2.9373905z"/><path d="m120.345295 108.539737c-27.4087236 33.079691-39.9178923 74.993283-64.0601828 110.118813-1.1779692 1.708366 1.6007954 3.314407 2.7618786 1.62366 23.9815354-34.887673 36.3502125-76.634563 63.5563032-109.479108 1.311032-1.572836-.936836-3.854497-2.257999-2.263365z"/><path d="m131.61727 100.451568c-3.948576.599078-7.67171 3.919567-4.306195 7.597274 3.63591 3.971347 7.451636-1.151618 8.174926-4.446545.416664-1.94012-2.608005-2.779091-3.077003-.83045-.448199 1.866055-1.309035 4.789999.347555 6.361103 1.437858 1.363983 3.563446.255624 4.924145-.604321 1.792123-1.130645 3.389669-2.526089 5.202592-3.626583.892371-.542054 1.184237-.213675.777638-.833071.507242.76556-.253622 2.903625-.434109 3.682295 1.021195.27922 2.049099.553852 3.070294.831761.590442-3.216929 2.284605-3.388656 5.27103-3.850745-.67364-.502072-1.34057-1.000866-2.01421-1.499005-.00738 1.441981-.00738 2.885928-.01409 4.327909-.004026 1.728411 2.701268 2.13741 3.125313.420797.305285-1.211264.614595-2.374681 1.503612-3.324422.385128-.410965.479062 2.784334.468327 2.918701-.048309.729511.531397 1.251901 1.166792 1.495072 5.385763 2.044991 10.199201-.15403 8.987454-6.205762-.350239-1.749385-3.117932-1.302371-3.132022.401133-.00738 1.08083.166397 2.572625-.427399 3.548584-.572996.92549.003355 1.913902.94068 2.273742 4.739633 1.820173 8.952565.289707 8.403723-5.178023-.173778-1.676631-2.590561-2.181979-3.128667-.420796-.375736 1.23486-.271067 2.474964-.646131 3.707857-.183842.614809.097289 1.464267.729329 1.751352 2.475827 1.109014 5.907096 2.322245 8.564081.986446 2.736158-1.375781 2.003474-5.227837 1.437858-7.654953-.156332-.664622-.847417-1.135232-1.527766-1.137199-.854127-.003277-1.701544-.00721-2.548962-.00852-.656865 0-1.423768.464055-1.542527 1.13261-1.69148 9.307988 10.883575 10.864016 17.280469 7.479294 3.427242-1.81493 3.569485-6.006507 3.736553-9.357146.26704-5.3150115-.229467-10.8974445-1.604927-16.0564594-.795082-2.9835898-3.160202-7.3088775-6.490156-8.1996285-3.375579-.9012382-3.799623 2.9599938-3.705689 5.2389793.153649 3.8278042 1.080239 7.6490539 1.841103 11.3975492 1.492877 7.3193644 2.124917 14.7789944 3.556066 22.1095024.385129 1.956506 3.458107 1.135232 3.076333-.813409-1.718989-8.774454-2.750248-17.6642675-4.427638-26.4518311-.507243-2.6814292-1.069504-5.4867378-.833327-8.2219137.072463-.7799806.461617-.4030992-.405929-.3100259.027509-.0032772.701149.5073152.903107.6757648 1.232546 1.0650996 2.336939 2.3655043 2.92738 3.8697527 1.371434 3.5000813 1.6841 7.4635628 1.91625 11.1655214.218732 3.4528891.344201 7.2007288-.635395 10.5625108-.780992 2.702404-5.181121 2.985556-7.51068 2.968515-3.254136-.020974-7.244311-1.418385-6.553226-5.230459-.514623.376882-1.02455.753763-1.538502 1.129334.847417.003277 1.697519.005243 2.548962.006554-.510598-.378192-1.020524-.760973-1.535148-1.139165.32273 1.379058.531398 2.590978.222087 3.98249-.270395 1.252557-5.003989-.557129-5.535386-.795056.239531.58138.483088 1.165383.729329 1.747419.375735-1.236827.26704-2.474964.642776-3.709824-1.041995-.136989-2.080635-.279876-3.125313-.420797.097289.988413.423373 2.552307-.857481 2.959994-1.062795.338866-2.542252-.384091-3.504403-.753763.31602.760973.63204 1.518013.944706 2.275709.948061-1.546197.860836-3.359161.871572-5.107891-1.041995.135678-2.083318.266767-3.128668.401133.753484 3.774058-2.420138 3.412907-5.056323 2.414663.389154.49945.777638.994967 1.160082 1.493106.138888-2.068587-.138887-6.17299-3.219246-6.181511-3.093777-.00852-4.400128 3.303448-5.003989 5.745639 1.045349.142888 2.086673.281187 3.125313.420141.006709-1.443292.010735-2.883962.016774-4.327909.004025-1.087385-1.003079-1.652379-2.01421-1.495072-4.156572.643648-6.702178 1.672698-7.501287 6.006506-.350239 1.93291 2.614715 2.798099 3.073649.829795.468327-2.030572 1.281526-4.898148-.3442-6.648188-1.33319-1.447225-3.59364-.357874-4.924145.450946-1.812923 1.099839-3.410469 2.502493-5.205947 3.633793-.31602.201222-.666259.423418-1.023879.560406-.663575.258901-.170423-.112737.253622.450291-.468999-.629228.256976-2.722722.433437-3.424049-1.027904-.279876-2.049099-.553852-3.077004-.832417-.228796 1.063134-1.072858 4.639247-2.840156 3.098949-1.753208-1.534399 2.006829-2.297994 2.889807-2.433671 2.02159-.302161 1.163438-3.283784-.843391-2.980313z"/><path d="m149.173608 56.4001991c-.354197 3.0430636-.636624 9.3894394 4.182584 8.0335514 1.661338-.4651687 3.106037-1.7841711 4.426469-2.8436081 1.00079-.7964561 2.937245-3.0218885 4.323465-2.8948381-.137559-1.0567046-.275117-2.1120432-.409353-3.1673818-4.247709 1.3353961-4.911579 3.5116476-6.170209 7.551306-.42929 1.3777462 1.145659 2.5054899 2.30793 1.8272043 1.121736-.6557443 2.421566-1.1086178 3.353909-2.0532995 1.131039-1.1509679 1.43008-3.2056335 1.812852-4.6967688.509034-2.0259768-2.390997-2.8183346-3.040248-.865446-1.531089 4.5738169-1.382898 9.7603448-1.733772 14.5226881-.226607 3.0048119-.147527 11.4488865-4.185907 12.0499855.647257.3763699 1.296508.754789 1.936455 1.131159-1.534411-4.6325606 2.951201-11.1135006 5.21793-14.7836197 2.672096-4.3354265 6.108407-9.691355 10.542185-12.3553164-.790796-.4658517-1.578935-.9323865-2.369732-1.3975552.058479 2.2664164.409354 4.3928041.037879 6.6605866 1.032023.1468594 2.063381.2916696 3.099391.4385291-.034555-1.0293821-.220625-2.4487953.254517-3.4146521-.319641.6502798-.636624.0491808.412677.8060191 1.495868 1.0785628 2.755162 2.4788502 4.241063 3.5820035 4.395235 3.2705249 7.04673-.6502798 7.662754-5.0212258.25784-1.844964-1.761018-2.7336342-2.878766-1.2500126-1.354987 1.7978324-1.479255 4.0567351-2.074014 6.1797074-.291731 1.0553385.512357 1.977479 1.516469 2.0437365 2.906677.1926249 5.706363-.6461814 6.892559-3.5546808 1.104457-2.720656-1.846744-4.739119-3.920758-5.401011-1.788264-.5696779-2.647508 1.9515225-1.228061 2.9412867 3.37451 2.3490675 8.185744 3.8716239 10.057075-1.0724153 1.650705-4.3634322.756906-9.2726349 1.19417-13.8211782-1.032023.1413949-2.067369.2814236-3.102715.418037 1.073224 2.9952489.883832 5.9624921 1.004777 9.0888899.154172 4.0744948 1.561658 7.7814996 3.514727 11.2938302 1.004777 1.80398 3.738674.1898926 2.727252-1.620235-1.971012-3.5458009-3.050881-6.9741143-3.126638-11.047243-.054492-2.9597295-.065125-5.7425445-1.07256-8.5636114-.625992-1.7452362-2.92329-1.407118-3.099392.4200863-.302363 3.1544035-.061801 6.338862-.318976 9.498047-.110313 1.324467-.303028 3.047162-1.173569 4.1106974-1.196828 1.4583481-4.000502-.7855271-5.000627-1.4849877-.405367.9808842-.818043 1.9604023-1.224739 2.9412866 3.865601 1.2384005-.126926 2.76164-2.111892 2.6284419.505711.682384 1.0081 1.3647679 1.513146 2.0451027.509699-1.8258382.588778-3.8675255 1.75105-5.4119401-.962911-.4146217-1.923164-.8326587-2.882088-1.2500126-.182083 1.3237839-.279105 4.6837906-2.211573 3.638698-1.685261-.9105283-3.003035-2.4781672-4.492258-3.6721683-1.283217-1.0307482-2.709974-1.8900465-4.327453-1.109984-1.929145.9310204-1.709184 4.3388418-1.65735 6.0471924.051169 1.742504 2.789054 2.2937391 3.098727.4385291.423309-2.5724304.140882-4.9399408.075757-7.5192019-.031233-1.2056133-1.31445-2.0328074-2.369732-1.396872-5.141508 3.088146-8.987173 9.1387537-12.086565 14.165444-2.651495 4.2958085-6.909836 11.2542123-5.13154 16.6080917.302363.9105284 1.041326 1.2664063 1.935791 1.131159 4.740129-.7042421 5.572127-7.0069016 6.095116-10.873744.784151-5.8675458.148191-12.2883758 2.032813-17.9448539-1.010758-.2882543-2.025503-.5785578-3.043571-.8654459-.206671.8306095-.396063 2.8688815-1.142336 3.4392425-.752918.5717271-1.74374.9118944-2.559125 1.386626.770196.6079297 1.540393 1.2158593 2.311918 1.8258382.876522-2.8183346.918387-4.351137 3.961958-5.3074308 1.764341-.5546504 1.331064-3.0068611-.412676-3.1680649-2.290653-.2110677-4.526813 2.1830822-6.156918 3.5095984-1.041991.8497354-2.163062 1.85521-3.425679 2.3401876-.831997.3189923-.285085-4.1646596-.19936-4.9139842.242555-2.048518-2.914651-2.038272-3.155213 0z"/><path d="m194.059462 53.2522462c2.471972.6477655 4.975779.7385934 7.502683.7477538 1.912033.0056256 1.918899-3.3148762.009988-3.3226213-2.265349-.0091532-4.503857-.0464701-6.717395-.6266426-1.858348-.4893445-2.656745 2.7100533-.795276 3.2015101z"/><path d="m150.993523 54c2.666.0067753 2.679927-3.9932052.013926-4-2.672094-.007621-2.676446 3.9932074-.013926 4z"/><path d="m53.0519511 220.405792c1.4186349.082329 2.4187404 1.484569 3.8701129 1.637939 2.1260266.225076 2.6247955-3.006983 2.8539596-4.462338.1591952-1.03641-.551406-1.789982-1.5752624-1.620013-1.8506445.312715-3.9869417.482684-5.4119957 1.888244-1.5617822 1.542996-1.6080002 4.498192-1.900714 6.525863-.1328766.944787.5385677 1.917458 1.5682014 1.618685 1.7306061-.496627 4.3021225-.780129 5.3920963-2.455249.9968959-1.527725.1521341-4.632307.1431473-6.307427-.0038515-.783448-.8210109-1.587479-1.6118517-1.272772-1.5052935.602857-3.2994494.977319-4.6314255 1.946671-1.448805 1.062304-2.046429 2.969138-2.6844937 4.585832-.2464958.623439.2586922 1.499839.8871282 1.620012 2.6812841.513226 7.1329731 1.473946 9.2859602-.954081 1.478333-1.670472.5815761-3.988286-.7638804-5.389862-1.3223474-1.377675-3.60115-2.293912-5.3060795-1.092845-2.727502 1.924097-1.8737534 6.58761-1.3692073 9.341631.1431473.778138 1.2363307 1.280076 1.877605.789425 1.3351857-1.027115 2.9065966-2.038959 3.6679093-3.630423.8434779-1.776702.6412743-4.034097.6483354-5.946243.0032096-1.153264-1.3820457-1.733547-2.1799475-.936819-2.2826541 2.29192-4.0703908 3.867448-4.9241394 7.144655-.2856527 1.108115.896757 2.077467 1.877605 1.48988 1.1124408-.668587 2.6016864-1.080894 3.578041-1.957294 1.0001055-.898974 1.2125798-3.265919 1.5977295-4.449724-.4146779.319355-.8235785.639374-1.2363307.958065.0468599 0 .0937198 0 .1431474.001992 1.6477989.00332 1.6580696-2.619906.007061-2.625217-.9603066-.001992-1.9238229-.005312-2.8873391-.008632-.6778636-.001991-1.3018061.590907-1.2786972 1.30597.0667593 2.31051.5777246 4.656209.9404073 6.932194.1758851 1.108115 1.8705439 1.304641 2.3359332.321347 1.0161533-2.151165 1.7440863-4.419183 2.7608816-6.569019.521236-1.110108-.3158227-2.101369-1.4385342-1.936712-1.8602732.271551-4.0299501.364502-5.5352436 1.667152-1.2164313 1.053008-1.7742565 3.185583-2.5612458 4.549979-.6181653 1.072262.3857917 2.11 1.4385343 1.93472 2.0034205-.33529 4.3817201-.493307 5.9037035-2.046262 1.5977295-1.637939 1.4488049-4.605086 1.4584337-6.718406.0064191-1.188452-1.3724169-1.678439-2.1799475-.932835-1.7344577 1.601423-5.7843071 6.391747-2.4482685 8.550215 1.0630133.687178 2.3853607.023902 3.103023-.855818 1.2825486-1.58416 1.4879618-3.846867 1.5213415-5.819431.0166898-.912917-1.1259211-1.756785-1.9199715-1.139321-1.2292695.95209-2.6215858 1.920778-3.2821176 3.402027-.6682348 1.494528-.6842827 3.297125-.9834157 4.885932-.1662563.859138.5809342 2.044934 1.5675595 1.622005 1.4821845-.634063 3.0535954-1.326552 3.6948697-2.955196.5912049-1.498512.6907019-2.827055 1.6612792-4.213361.8672289-1.238911-1.0001054-2.625217-2.0034205-1.599431-.5879953.599538-1.2132217.991262-1.8371642 1.535693-1.3781942 1.197747-2.4155308 2.750702-3.6614902 4.085885-1.1458205 1.217665.6553965 3.083999 1.8012169 1.86235 1.126563-1.201066 2.0900793-2.561479 3.2525896-3.730013.6977629-.690497 1.5412408-1.171853 2.2492744-1.890236-.6714444-.53248-1.3358277-1.063631-2.0034205-1.597439-.7940504 1.137329-1.3422469 2.333084-1.6182708 3.707439-.2689629 1.348462-.9570971 1.72226-2.2062661 2.25474.521236.542438 1.0431139 1.080893 1.5649918 1.620012.2586922-1.363068.3723114-2.764644.7080336-4.109786.2818012-1.155919 1.5213414-1.946671 2.3789415-2.609947-.6348552-.381101-1.2761295-.760875-1.9135523-1.14264-.0269605 1.187124-.0866587 2.429355-.5648863 3.534151-.3556216.811334-.6579641.484012-.1694658.926195-.8274301-.747596 2.4848577-4.067294 2.9136577-4.46433-.727933-.314707-1.455866-.623439-2.1799475-.936155-.0102707 1.467307.2625437 3.870768-.8640192 5.020712-.9763546 1.003877-3.3559381 1.003877-4.6179454 1.21501.4814372.644685.9603067 1.288043 1.4385343 1.932728.6939114-1.197747 1.1528815-2.835022 2.0368002-3.890023.8498971-1.016491 3.3822566-.958065 4.5319285-1.122722-.4820791-.646677-.9603066-1.292026-1.4385342-1.93472-1.0167953 2.147181-1.7511475 4.420511-2.7647332 6.570347.781212.108222 1.5585726.213125 2.3397846.321347-.329303-2.046926-.7882731-4.152943-.8543905-6.232402-.4281581.440192-.8537485.876401-1.2819067 1.309289.9596648.003984 1.9270325.007304 2.8866973.010623 1.647799.003984 1.65486-2.619906.0070611-2.625217-.046218 0-.099497 0-.1463569 0-.5879953 0-1.0533846.401683-1.2331211.958729-.2657533.821293-.5148168 1.649226-.7471905 2.479151-.0667593.252297-.4852886 1.155919-.1893653.814654.1200384-.140756-.5777246.237026-.7741509.324666-.7940504.345249-1.5450924.778137-2.2890733 1.223641.6252264.495963 1.2523786.98927 1.8737535 1.487225.7311425-2.797178 2.3128241-4.030114 4.2629656-5.984753-.7272911-.310723-1.4577917-.622775-2.1793056-.934163-.0038515 1.537685.1392959 3.218116-.3357222 4.702685-.3556215 1.113427-1.8666923 1.965925-2.7108122 2.611939.6245845.261592 1.2485271.52584 1.8769631.790088-.3023426-1.647234-1.073284-4.975564.2291641-6.391747.1957844-.209141.4615377-.232379.7876312-.154698.4711665.110214.8871282.381765 1.2626492.727014.3716695.342593.7080336.819965.8338492 1.178493.1694659.496627.1129772.54443-.0397988.715063-1.2690684 1.434109-5.1526616.472061-6.6977539.177272.2952814.542438.5912048 1.078902.8871282 1.618684.3883593-.977983.7901989-2.495085 1.6843882-3.151057 1.0732839-.782121 2.628005-1.068279 3.8405847-1.549635-.5385677-.426914-1.080345-.848515-1.6150612-1.273437.0064192 1.520422.451909 3.462446.2291641 4.893236-.0802395.489323-3.1036649 1.121394-3.8810255 1.347133.5186683.540447 1.0469654 1.08023 1.5682013 1.621341.2387929-1.67844.2689629-3.822965 1.1792002-5.30023.6682347-1.087534 3.2962398-1.106124 4.3464147-1.282068-.5250875-.542439-1.0469653-1.082222-1.5682013-1.621341-.1161869.748924-.1591952 1.993147-.6412743 2.621898.2394347-.315371.0937197-.158018-.4621797-.511897-1.0001055-.632071-1.9597703-1.137329-3.1524506-1.209698-1.647799-.102911-1.6445894 2.52629-.0032096 2.625217z"/><path d="m50.4479023 216.033146c-3.8783681.910297-7.7211719 1.983148-11.5608561 3.097375-1.5498498.451455-.9009594 3.273968.6557536 2.820297 3.8359407-1.114967 7.6824881-2.185601 11.5577365-3.097376 1.5723114-.367961.9096944-3.188996-.652634-2.820296z"/><path d="m53.4113582 221.077411c-2.6652326.884368-4.862996 2.60112-7.5144021 3.481775-1.5742517.525422-.9059684 2.895703.688694 2.363473 2.6652326-.885606 4.8629961-2.602358 7.5137437-3.484869 1.5821527-.524804.9066268-2.892609-.6880356-2.360379z"/><path d="m53.9200276 222.597202c-1.5778023 2.824106-3.1533995 5.645548-4.7312019 8.468322-.790555 1.416381 1.1075489 2.739536 1.8920397 1.337139 1.5778024-2.822774 3.156156-5.644217 4.7306506-8.464993.7900038-1.416381-1.109754-2.744197-1.8914884-1.340468z"/></g><path d="m603 192c-14.666667 0-29.333333 0-44 0h-557v-190h777v190h-114" stroke="#000" stroke-width="4"/></g></svg>