<?xml version="1.0" encoding="utf-8"?>
<!-- Generator: Adobe Illustrator 16.0.0, SVG Export Plug-In . SVG Version: 6.00 Build 0)  -->
<!DOCTYPE svg PUBLIC "-//W3C//DTD SVG 1.1//EN" "http://www.w3.org/Graphics/SVG/1.1/DTD/svg11.dtd">
<svg version="1.1" id="Layer_1" xmlns="http://www.w3.org/2000/svg" xmlns:xlink="http://www.w3.org/1999/xlink" x="0px" y="0px"
	 width="358px" height="391px" viewBox="0 0 358 391" enable-background="new 0 0 358 391" xml:space="preserve">
<g>
	<g>
		<path fill="#010101" d="M180.779,107.963c5.248-25.122,5.569-54.075,20.874-75.811c-1.476-0.397-2.945-0.802-4.426-1.203
			c2.945,29.341,4.327,59.657,15.025,87.487c1.076,2.812,5.678,1.603,4.58-1.241c-10.558-27.459-11.95-57.281-14.849-86.23
			c-0.243-2.357-3.018-3.201-4.426-1.202c-15.584,22.125-16.014,51.364-21.356,76.931
			C175.581,109.665,180.163,110.941,180.779,107.963L180.779,107.963z"/>
	</g>
</g>
<g>
	<g>
		<path fill="#010101" d="M216.932,113.106c3.229-26.05,6.319-54.922,19.844-78.018c-1.449-0.193-2.888-0.384-4.337-0.577
			c7.521,29.489,12.924,59.494,12.949,89.999c0,3.045,4.741,3.058,4.741,0.016c-0.021-30.91-5.486-61.379-13.104-91.255
			c-0.508-1.987-3.312-2.321-4.343-0.575c-13.979,23.874-17.152,53.468-20.496,80.393
			C211.808,116.104,216.56,116.083,216.932,113.106L216.932,113.106z"/>
	</g>
</g>
<g>
	<g>
		<path fill="#010101" d="M182.291,107.814c-57.856,1.228-93.6,55.611-147.997,66.651c-3.007,0.607-1.749,5.154,1.242,4.549
			c53.869-10.931,89.742-65.274,146.744-66.482C185.334,112.466,185.354,107.746,182.291,107.814L182.291,107.814z"/>
	</g>
</g>
<g>
	<g>
		<path fill="#010101" d="M34.899,180.986c58.518,5.727,117.888-4.266,175.961,7.035c2.986,0.583,4.275-3.958,1.269-4.544
			c-58.523-11.392-118.257-1.439-177.214-7.208C31.872,175.97,31.887,180.686,34.899,180.986L34.899,180.986z"/>
	</g>
</g>
<g>
	<g>
		<path fill="#010101" d="M164.438,119.774c-2.293,2.402-3.432,4.951-3.571,8.263c-0.052,1.3,1.112,2.347,2.37,2.369
			c5.306,0.082,10.532,0.853,15.823-0.038c1.507-0.257,2.185-2.255,1.429-3.464c-2.019-3.248-5.544-6.018-9.633-5.061
			c-4.063,0.949-6.413,4.483-7.061,8.408c-0.186,1.147,0.274,2.692,1.646,2.907c2.966,0.458,5.678,0.638,8.478-0.568
			c2.65-1.148,4.002-4.195,4.908-6.701c0.476-1.312-0.522-2.454-1.652-2.908c-3.535-1.428-7.226-1.902-10.761-0.249
			c-3.421,1.601-4.492,5.677-4.611,9.083c-0.099,3.044,4.647,3.05,4.751,0.017c0.197-5.911,4.694-6.18,9.343-4.304
			c-0.549-0.971-1.098-1.938-1.646-2.908c-1.407,3.894-3.576,4.61-7.53,3.993c0.543,0.965,1.092,1.937,1.646,2.908
			c0.803-4.868,5.026-7.044,8.013-2.248c0.471-1.156,0.947-2.305,1.423-3.458c-4.809,0.812-9.72-0.053-14.554-0.131
			c0.786,0.79,1.578,1.583,2.359,2.369c0.088-2.053,0.756-3.447,2.169-4.931C169.889,120.917,166.545,117.564,164.438,119.774
			L164.438,119.774z"/>
	</g>
</g>
<g>
	<g>
		<path fill="#010101" d="M194.18,130.649c2.955,9.004,14.041,7.229,17.628-0.331c0.549-1.158,0.353-2.542-0.838-3.227
			c-4.954-2.862-12.267-2.435-16.258,1.95c-3.887,4.261,0.259,10.089,5.311,10.598c4.312,0.429,8.142-3.009,9.632-6.761
			c2.262-5.703-3.824-8.54-8.415-8.97c-1.056-0.099-2.014,0.787-2.298,1.725c-0.989,3.257-1.051,6.683-1.062,10.063
			c-0.011,1.214,1.071,2.451,2.365,2.363c1.211-0.082,2.474-0.233,3.396-1.113c0.595-0.567,0.941-1.608,1.609-2.024
			c2.583-1.615,0.212-5.704-2.386-4.078c-0.745,0.466-2.106,2.461-2.608,2.499c0.797,0.787,1.583,1.577,2.375,2.364
			c0.011-2.971,0.016-5.939,0.891-8.804c-0.766,0.573-1.521,1.15-2.298,1.724c1.92,0.18,4.647,0.584,3.866,2.986
			c-0.492,1.492-2.401,3.126-3.98,3.331c-1.931,0.243-4.15-1.563-2.406-3.209c2.5-2.367,7.085-2.182,9.864-0.579
			c-0.274-1.078-0.563-2.152-0.843-3.229c-1.631,3.437-7.226,6.754-8.96,1.481C197.812,126.535,193.222,127.751,194.18,130.649
			L194.18,130.649z"/>
	</g>
</g>
<g>
	<g>
		<path fill="#010101" d="M31.432,179.004c2.241,0.867,4.819,1.709,7.174,0.745c2.893-1.19,3.83-4.254,4.312-7.076
			c0.233-1.376-0.352-2.396-1.651-2.906c-7.624-2.99-13.405,1.846-12.53,9.786c0.119,1.084,0.631,1.944,1.734,2.281
			c4.425,1.339,8.985,0.893,12.437-2.35c2.148-2.02,3.929-6.165,1.667-8.721c-2.821-3.175-7.966,0.331-10.341,2.324
			c-4.549,3.803-6.03,9.209-5.522,14.959c0.109,1.247,0.983,2.408,2.371,2.367c7.448-0.215,12.577-5.309,12.851-12.703
			c0.047-1.091-0.75-1.939-1.734-2.279c-5.403-1.868-11.562-1.131-15.206,3.625c-1.563,2.038-3.67,6.011-2.94,8.663
			c0.916,3.326,5.465,2.833,7.981,2.695c3.043-0.164,3.074-4.885,0.016-4.718c-1.227,0.066-2.945,0.594-4.021-0.265
			c0.202,0.766,0.398,1.537,0.605,2.295c0.952-6.741,5.688-10.033,12.297-7.75c-0.58-0.761-1.165-1.519-1.739-2.28
			c-0.171,4.783-3.271,7.854-8.09,7.995c0.782,0.789,1.573,1.58,2.365,2.366c-0.311-3.461-0.005-6.612,2.008-9.535
			c0.854-1.259,2.215-2.208,3.488-3.004c0.673-0.425,1.397-0.764,2.112-1.105c0.823-0.399,0.756-0.042,0.249-0.297
			c-0.911-0.456-0.243-0.834-0.663,0.449c-0.249,0.752-0.896,1.389-1.459,1.915c-2.008,1.89-5.041,1.535-7.448,0.807
			c0.58,0.761,1.159,1.52,1.734,2.281c-0.192-1.709-0.378-3.789,0.792-5.227c1.387-1.711,4.068-0.674,5.714-0.027
			c-0.554-0.971-1.103-1.937-1.651-2.908c-0.155,0.93-0.331,3.527-1.428,3.975c-1.211,0.498-3.105-0.498-4.208-0.919
			C29.843,173.352,28.606,177.909,31.432,179.004L31.432,179.004z"/>
	</g>
</g>
<g>
	<g>
		<path fill="#010101" d="M203.17,185.942c-40.579,48.815-59.099,110.666-94.842,162.5c-1.744,2.521,2.37,4.891,4.089,2.396
			c35.505-51.483,53.817-113.088,94.096-161.556C208.454,186.961,205.126,183.594,203.17,185.942L203.17,185.942z"/>
	</g>
</g>
<g>
	<g>
		<path fill="#010101" d="M227.035,175.026c-5.885,0.914-11.434,5.98-6.418,11.591c5.419,6.059,11.106-1.757,12.184-6.784
			c0.621-2.96-3.887-4.24-4.586-1.267c-0.668,2.847-1.951,7.308,0.518,9.705c2.143,2.081,5.311,0.39,7.339-0.922
			c2.671-1.725,5.052-3.854,7.754-5.533c1.33-0.827,1.765-0.326,1.159-1.271c0.756,1.168-0.378,4.43-0.647,5.618
			c1.522,0.426,3.054,0.845,4.576,1.269c0.88-4.908,3.405-5.17,7.856-5.875c-1.004-0.766-1.998-1.527-3.002-2.287
			c-0.011,2.2-0.011,4.403-0.021,6.603c-0.006,2.637,4.026,3.261,4.658,0.642c0.455-1.848,0.916-3.623,2.241-5.072
			c0.574-0.627,0.714,4.248,0.698,4.453c-0.072,1.113,0.792,1.91,1.739,2.281c8.027,3.12,15.201-0.235,13.395-9.468
			c-0.522-2.669-4.647-1.987-4.668,0.612c-0.011,1.649,0.248,3.925-0.637,5.414c-0.854,1.412,0.005,2.92,1.402,3.469
			c7.064,2.777,13.343,0.442,12.525-7.9c-0.259-2.558-3.861-3.329-4.663-0.642c-0.56,1.884-0.404,3.776-0.963,5.657
			c-0.274,0.938,0.145,2.234,1.087,2.672c3.69,1.692,8.804,3.543,12.764,1.505c4.078-2.099,2.986-7.976,2.143-11.679
			c-0.233-1.014-1.263-1.732-2.277-1.735c-1.273-0.005-2.536-0.011-3.799-0.013c-0.979,0-2.122,0.708-2.299,1.728
			c-2.521,14.201,16.221,16.575,25.755,11.411c5.108-2.769,5.32-9.164,5.569-14.276c0.398-8.109-0.342-16.626-2.392-24.497
			c-1.185-4.552-4.71-11.151-9.673-12.51c-5.031-1.375-5.663,4.516-5.523,7.993c0.229,5.84,1.61,11.67,2.744,17.389
			c2.225,11.167,3.167,22.548,5.3,33.732c0.574,2.985,5.154,1.732,4.585-1.241c-2.562-13.387-4.099-26.95-6.599-40.357
			c-0.756-4.091-1.594-8.371-1.242-12.544c0.108-1.19,0.688-0.615-0.605-0.473c0.041-0.005,1.045,0.774,1.346,1.031
			c1.837,1.625,3.483,3.609,4.363,5.904c2.044,5.34,2.51,11.387,2.856,17.035c0.326,5.268,0.513,10.986-0.947,16.115
			c-1.164,4.123-7.722,4.555-11.194,4.529c-4.85-0.032-10.797-2.164-9.767-7.98c-0.767,0.575-1.527,1.15-2.293,1.723
			c1.263,0.005,2.53,0.008,3.799,0.01c-0.761-0.577-1.521-1.161-2.288-1.738c0.481,2.104,0.792,3.953,0.331,6.076
			c-0.403,1.911-7.458-0.85-8.25-1.213c0.357,0.887,0.72,1.778,1.087,2.666c0.56-1.887,0.398-3.776,0.958-5.66
			c-1.553-0.209-3.101-0.427-4.658-0.642c0.145,1.508,0.631,3.894-1.278,4.516c-1.584,0.517-3.789-0.586-5.223-1.15
			c0.471,1.161,0.942,2.316,1.408,3.472c1.413-2.359,1.283-5.125,1.299-7.793c-1.553,0.207-3.105,0.407-4.663,0.612
			c1.123,5.758-3.607,5.207-7.536,3.684c0.58,0.762,1.159,1.518,1.729,2.278c0.207-3.156-0.207-9.418-4.798-9.431
			c-4.611-0.013-6.558,5.04-7.458,8.766c1.558,0.218,3.11,0.429,4.658,0.641c0.01-2.202,0.016-4.4,0.025-6.603
			c0.006-1.659-1.495-2.521-3.002-2.281c-6.195,0.982-9.989,2.552-11.18,9.164c-0.522,2.949,3.897,4.269,4.581,1.266
			c0.698-3.098,1.91-7.473-0.513-10.143c-1.987-2.208-5.356-0.546-7.339,0.688c-2.702,1.678-5.083,3.818-7.759,5.544
			c-0.471,0.307-0.993,0.646-1.526,0.855c-0.989,0.395-0.254-0.172,0.378,0.687c-0.699-0.96,0.383-4.154,0.646-5.224
			c-1.532-0.427-3.054-0.845-4.586-1.27c-0.341,1.622-1.599,7.078-4.233,4.728c-2.613-2.341,2.991-3.506,4.307-3.713
			C231.305,179.112,230.026,174.563,227.035,175.026L227.035,175.026z"/>
	</g>
</g>
<g>
	<g>
		<path fill="#010101" d="M252.06,112.261c-0.533,4.455-0.958,13.746,6.294,11.761c2.5-0.681,4.674-2.612,6.661-4.163
			c1.506-1.166,4.42-4.424,6.506-4.238c-0.207-1.547-0.414-3.092-0.616-4.637c-6.392,1.955-7.391,5.141-9.285,11.055
			c-0.646,2.017,1.724,3.668,3.473,2.675c1.688-0.96,3.644-1.623,5.047-3.006c1.702-1.685,2.152-4.693,2.728-6.876
			c0.766-2.966-3.598-4.126-4.575-1.267c-2.304,6.696-2.081,14.289-2.609,21.261c-0.341,4.399-0.222,16.761-6.299,17.641
			c0.974,0.551,1.951,1.105,2.914,1.656c-2.309-6.782,4.441-16.27,7.852-21.643c4.021-6.347,9.192-14.188,15.864-18.088
			c-1.19-0.682-2.376-1.365-3.566-2.046c0.088,3.318,0.616,6.431,0.057,9.751c1.553,0.215,3.105,0.427,4.664,0.642
			c-0.052-1.507-0.332-3.585,0.383-4.999c-0.481,0.952-0.958,0.072,0.621,1.18c2.251,1.579,4.146,3.629,6.382,5.244
			c6.614,4.788,10.604-0.952,11.531-7.351c0.388-2.701-2.65-4.002-4.332-1.83c-2.039,2.632-2.226,5.939-3.121,9.047
			c-0.439,1.545,0.771,2.895,2.282,2.992c4.374,0.282,8.587-0.946,10.372-5.204c1.662-3.983-2.779-6.938-5.9-7.907
			c-2.691-0.834-3.984,2.857-1.848,4.306c5.078,3.439,12.318,5.668,15.134-1.57c2.484-6.388,1.139-13.575,1.797-20.234
			c-1.553,0.207-3.111,0.412-4.669,0.612c1.615,4.385,1.33,8.729,1.512,13.306c0.232,5.965,2.35,11.392,5.289,16.534
			c1.512,2.641,5.626,0.278,4.104-2.372c-2.966-5.191-4.591-10.21-4.705-16.173c-0.082-4.333-0.098-8.407-1.614-12.537
			c-0.942-2.555-4.399-2.06-4.664,0.615c-0.455,4.618-0.093,9.28-0.48,13.905c-0.166,1.939-0.456,4.461-1.766,6.018
			c-1.801,2.135-6.02-1.15-7.525-2.174c-0.61,1.436-1.231,2.87-1.843,4.306c5.817,1.813-0.191,4.043-3.178,3.848
			c0.761,0.999,1.517,1.998,2.277,2.994c0.767-2.673,0.886-5.662,2.635-7.923c-1.449-0.607-2.894-1.219-4.337-1.83
			c-0.274,1.938-0.42,6.857-3.328,5.327c-2.536-1.333-4.519-3.628-6.76-5.376c-1.931-1.509-4.078-2.767-6.512-1.625
			c-2.903,1.363-2.572,6.352-2.494,8.853c0.077,2.551,4.197,3.358,4.663,0.642c0.637-3.766,0.212-7.232,0.114-11.008
			c-0.047-1.765-1.978-2.976-3.566-2.045c-7.737,4.521-13.524,13.379-18.188,20.738c-3.99,6.289-10.398,16.476-7.722,24.314
			c0.455,1.333,1.567,1.854,2.913,1.656c7.133-1.031,8.385-10.258,9.172-15.919c1.18-8.59,0.223-17.99,3.059-26.271
			c-1.521-0.422-3.048-0.847-4.58-1.267c-0.311,1.216-0.596,4.2-1.719,5.035c-1.133,0.837-2.624,1.335-3.851,2.03
			c1.159,0.89,2.318,1.78,3.479,2.673c1.319-4.126,1.382-6.37,5.962-7.77c2.655-0.812,2.003-4.402-0.621-4.638
			c-3.447-0.309-6.812,3.196-9.265,5.138c-1.568,1.244-3.255,2.716-5.155,3.426c-1.252,0.467-0.429-6.097-0.3-7.194
			C257.173,109.262,252.422,109.277,252.06,112.261L252.06,112.261z"/>
	</g>
</g>
<g>
	<g>
		<path fill="#010101" d="M318.392,107.184c3.96,0.92,7.971,1.049,12.019,1.062c3.063,0.008,3.074-4.708,0.016-4.719
			c-3.629-0.013-7.215-0.066-10.761-0.89C316.689,101.942,315.41,106.486,318.392,107.184L318.392,107.184z"/>
	</g>
</g>
<g>
	<g>
		<path fill="#010101" d="M254.456,106.135c3.063,0.008,3.079-4.709,0.016-4.717C251.402,101.409,251.397,106.127,254.456,106.135
			L254.456,106.135z"/>
	</g>
</g>
<g>
	<g>
		<path fill="#010101" d="M103.406,352.075c2.21,0.124,3.768,2.236,6.029,2.467c3.312,0.339,4.089-4.529,4.446-6.721
			c0.248-1.561-0.859-2.696-2.454-2.44c-2.883,0.471-6.211,0.727-8.431,2.844c-2.433,2.324-2.505,6.775-2.961,9.829
			c-0.207,1.423,0.839,2.888,2.443,2.438c2.696-0.748,6.702-1.175,8.4-3.698c1.553-2.301,0.237-6.977,0.223-9.5
			c-0.006-1.18-1.279-2.391-2.511-1.917c-2.345,0.908-5.14,1.472-7.215,2.932c-2.257,1.6-3.188,4.472-4.182,6.907
			c-0.384,0.939,0.403,2.259,1.382,2.44c4.177,0.773,11.112,2.22,14.466-1.437c2.303-2.516,0.906-6.007-1.19-8.118
			c-2.06-2.075-5.61-3.455-8.266-1.646c-4.249,2.898-2.919,9.922-2.133,14.07c0.223,1.172,1.926,1.928,2.925,1.189
			c2.08-1.547,4.528-3.071,5.714-5.468c1.314-2.676,0.999-6.076,1.01-8.956c0.005-1.737-2.153-2.611-3.396-1.411
			c-3.556,3.452-6.341,5.825-7.671,10.761c-0.445,1.669,1.397,3.129,2.925,2.244c1.733-1.007,4.053-1.628,5.574-2.948
			c1.558-1.354,1.889-4.919,2.489-6.702c-0.646,0.481-1.283,0.963-1.926,1.443c0.073,0,0.146,0,0.223,0.003
			c2.567,0.005,2.583-3.946,0.011-3.954c-1.496-0.003-2.997-0.008-4.498-0.013c-1.056-0.003-2.028,0.89-1.992,1.967
			c0.104,3.48,0.9,7.013,1.465,10.441c0.274,1.669,2.914,1.965,3.639,0.484c1.583-3.24,2.717-6.656,4.301-9.894
			c0.812-1.672-0.492-3.165-2.241-2.917c-2.898,0.409-6.278,0.549-8.623,2.511c-1.895,1.586-2.764,4.798-3.99,6.853
			c-0.963,1.615,0.601,3.178,2.241,2.914c3.121-0.505,6.826-0.743,9.197-3.082c2.489-2.467,2.257-6.936,2.272-10.119
			c0.01-1.79-2.138-2.528-3.396-1.405c-2.702,2.412-9.011,9.627-3.814,12.878c1.656,1.035,3.716,0.036,4.834-1.289
			c1.998-2.386,2.318-5.794,2.37-8.765c0.026-1.375-1.754-2.646-2.991-1.716c-1.915,1.434-4.084,2.893-5.113,5.124
			c-1.041,2.251-1.066,4.966-1.532,7.359c-0.259,1.294,0.905,3.08,2.442,2.443c2.309-0.955,4.757-1.998,5.756-4.451
			c0.921-2.257,1.076-4.258,2.588-6.346c1.351-1.866-1.558-3.954-3.121-2.409c-0.916,0.903-1.89,1.493-2.862,2.313
			c-2.147,1.804-3.763,4.143-5.704,6.154c-1.785,1.834,1.021,4.645,2.806,2.805c1.755-1.809,3.256-3.858,5.067-5.618
			c1.087-1.04,2.401-1.765,3.504-2.847c-1.046-0.802-2.081-1.602-3.121-2.406c-1.237,1.713-2.091,3.514-2.521,5.584
			c-0.419,2.031-1.491,2.594-3.437,3.396c0.812,0.817,1.625,1.628,2.438,2.44c0.403-2.053,0.58-4.164,1.103-6.19
			c0.439-1.741,2.37-2.932,3.706-3.931c-0.989-0.574-1.988-1.146-2.981-1.721c-0.042,1.788-0.135,3.659-0.88,5.323
			c-0.554,1.222-1.025,0.729-0.264,1.395c-1.289-1.126,3.871-6.126,4.539-6.724c-1.134-0.474-2.268-0.939-3.396-1.41
			c-0.016,2.21,0.409,5.83-1.346,7.562c-1.521,1.512-5.228,1.512-7.194,1.83c0.75,0.971,1.496,1.94,2.241,2.911
			c1.081-1.804,1.796-4.27,3.173-5.859c1.324-1.531,5.269-1.443,7.06-1.691c-0.751-0.974-1.496-1.946-2.241-2.914
			c-1.584,3.234-2.728,6.658-4.307,9.896c1.217,0.163,2.428,0.321,3.645,0.484c-0.513-3.083-1.228-6.255-1.331-9.387
			c-0.667,0.663-1.33,1.32-1.997,1.972c1.495,0.006,3.002,0.011,4.497,0.016c2.567,0.006,2.578-3.946,0.011-3.954
			c-0.072,0-0.155,0-0.228,0c-0.916,0-1.641,0.605-1.921,1.444c-0.414,1.237-0.802,2.484-1.164,3.734
			c-0.104,0.38-0.756,1.741-0.295,1.227c0.187-0.212-0.9,0.357-1.206,0.489c-1.237,0.52-2.407,1.172-3.566,1.843
			c0.974,0.747,1.951,1.49,2.919,2.24c1.139-4.213,3.603-6.07,6.641-9.014c-1.133-0.468-2.271-0.938-3.395-1.407
			c-0.006,2.316,0.217,4.847-0.523,7.083c-0.554,1.677-2.908,2.961-4.223,3.934c0.973,0.394,1.945,0.792,2.924,1.19
			c-0.471-2.481-1.672-7.494,0.357-9.627c0.305-0.315,0.719-0.35,1.227-0.233c0.734,0.166,1.382,0.575,1.967,1.095
			c0.579,0.516,1.103,1.235,1.299,1.775c0.264,0.748,0.176,0.82-0.062,1.077c-1.977,2.16-8.027,0.711-10.434,0.267
			c0.46,0.817,0.921,1.625,1.382,2.438c0.605-1.473,1.231-3.758,2.624-4.746c1.672-1.178,4.094-1.609,5.983-2.334
			c-0.839-0.643-1.683-1.278-2.516-1.918c0.01,2.29,0.704,5.215,0.357,7.37c-0.125,0.737-4.835,1.689-6.046,2.029
			c0.808,0.814,1.631,1.627,2.443,2.442c0.372-2.528,0.419-5.758,1.837-7.983c1.041-1.638,5.135-1.666,6.771-1.931
			c-0.818-0.817-1.631-1.63-2.443-2.442c-0.181,1.128-0.248,3.002-0.999,3.949c0.373-0.475,0.146-0.238-0.72-0.771
			c-1.558-0.952-3.053-1.713-4.911-1.822C100.844,347.966,100.849,351.926,103.406,352.075L103.406,352.075z"/>
	</g>
</g>
<g>
	<g>
		<path fill="#010101" d="M104.312,346.775c-6.216,1.232-12.375,2.684-18.529,4.192c-2.484,0.611-1.444,4.431,1.051,3.817
			c6.148-1.509,12.313-2.958,18.524-4.192C107.878,350.094,106.816,346.276,104.312,346.775L104.312,346.775z"/>
	</g>
</g>
<g>
	<g>
		<path fill="#010101" d="M101.444,353.846c-4.048,1.429-7.386,4.203-11.413,5.626c-2.391,0.849-1.376,4.679,1.046,3.819
			c4.048-1.431,7.386-4.205,11.412-5.631C104.892,356.812,103.866,352.986,101.444,353.846L101.444,353.846z"/>
	</g>
</g>
<g>
	<g>
		<path fill="#010101" d="M103.096,356.17c-2.862,4.241-5.72,8.478-8.582,12.717c-1.434,2.127,2.009,4.114,3.432,2.008
			c2.862-4.239,5.725-8.476,8.581-12.712C107.96,356.056,104.514,354.062,103.096,356.17L103.096,356.17z"/>
	</g>
</g>
</svg>
