<svg xmlns="http://www.w3.org/2000/svg" viewBox="0 0 16.32 25.94"><defs><style>.cls-1{fill:#231f20;}</style></defs><g id="Layer_2" data-name="Layer 2"><g id="Layer_1-2" data-name="Layer 1"><g id="note_1"><path class="cls-1" d="M9.65,21.08c-.59-3.78-5.77-3.31-7.76-1.77A3.78,3.78,0,0,0,.72,23.49c1.4,3.73,9.25,1.61,8.93-2.41" transform="translate(-0.01)"/><path class="cls-1" d="M10.13,21A4.08,4.08,0,0,0,6,17.68a6.19,6.19,0,0,0-5.18,2c-1.29,1.73-1.13,4.53.84,5.68a6,6,0,0,0,5.07.06c1.79-.71,3.54-2.23,3.4-4.33,0-.64-1-.64-1,0,.2,2.93-4,4.37-6.32,3.68a2.73,2.73,0,0,1-1.54-3.88c.69-1.53,2.48-2.13,4.05-2.2a4.51,4.51,0,0,1,2.45.47,2.76,2.76,0,0,1,1.38,2.07c.1.63,1.07.36,1-.27Z" transform="translate(-0.01)"/></g><path class="cls-1" d="M16.13,5c-1.33-1.13-2.66-2.25-4-3.34-1-.76-4.4-3-4.63-.48a37.1,37.1,0,0,0,.13,4.59c.06,1.56.12,3.11.21,4.67.1,1.75.27,3.5.43,5.25a33.1,33.1,0,0,1,.45,5.87c-.08.8,1.17.79,1.25,0a26.89,26.89,0,0,0-.38-5.06c-.15-1.7-.32-3.4-.44-5.1C9,9,8.89,6.55,8.81,4.12a10.22,10.22,0,0,1-.05-2.47c.09-.38-.07-.34.35-.33a2.4,2.4,0,0,1,1,.42,15.49,15.49,0,0,1,1.71,1.31C13,4,14.12,4.93,15.24,5.88c.61.52,1.5-.36.89-.88Z" transform="translate(-0.01)"/></g></g></svg>