<svg xmlns="http://www.w3.org/2000/svg" viewBox="0 0 28.59 30.55"><defs><style>.cls-1{fill:#231f20;}</style></defs><g id="Layer_2" data-name="Layer 2"><g id="Layer_1-2" data-name="Layer 1"><path class="cls-1" d="M10.28,23.86c.25-1.52-.37-3.63-2-3.94a4.73,4.73,0,0,0-2.75.28,7.62,7.62,0,0,0-4.39,3.44,3.5,3.5,0,0,0-.46,3c.79,1.93,4,3.68,5.84,2.55a9.16,9.16,0,0,0,3.76-5.34c.65-2.21.2-7.9.2-7.9L9.63,1.77" transform="translate(0)"/><path class="cls-1" d="M10.76,24a4.89,4.89,0,0,0-.51-3.14,3,3,0,0,0-2.6-1.51A7.16,7.16,0,0,0,4,20.26a8.12,8.12,0,0,0-3,2.65A4.29,4.29,0,0,0,.2,26.78a5.17,5.17,0,0,0,2.1,2.36A5.12,5.12,0,0,0,5.58,30a5.05,5.05,0,0,0,2.9-1.82,10.45,10.45,0,0,0,2.59-6.33A39.53,39.53,0,0,0,11,16.33c-.13-2.06-.24-4.11-.37-6.16l-.5-8.4c0-.64-1-.65-1,0L10,15.45A46.08,46.08,0,0,1,10,22.3,9.05,9.05,0,0,1,7.24,28,3,3,0,0,1,4.35,29a5.21,5.21,0,0,1-2.69-1.66c-2.06-2.43,1.25-5.58,3.46-6.42,1.07-.41,2.66-.94,3.7-.18a3.32,3.32,0,0,1,1,3c-.1.62.87.9,1,.26Z" transform="translate(0)"/><path class="cls-1" d="M28.07,22.66c-1.42-1.18-5.11-1.31-6.73-.42A4.75,4.75,0,0,0,19,26.9a3.68,3.68,0,0,0,1.78,2.78,3.83,3.83,0,0,0,3.11.1c2.75-1,4.16-4.19,4.2-7.12a82.2,82.2,0,0,0-.21-8.74C27.05,5.22,27,5,27,.5" transform="translate(0)"/><path class="cls-1" d="M28.42,22.31a6.87,6.87,0,0,0-4.55-1.14,5.36,5.36,0,0,0-4.31,2,5.09,5.09,0,0,0-.7,5.14,3.92,3.92,0,0,0,4.76,2.11A6.46,6.46,0,0,0,27.54,27a12.62,12.62,0,0,0,1.05-5.76c0-2.56,0-5.1-.26-7.65-.18-1.93-.37-3.85-.55-5.78-.22-2.43-.33-4.84-.32-7.27a.5.5,0,0,0-1,0c0,1.81,0,3.62.16,5.43.25,3.15.66,6.29.85,9.45.14,2.22.13,4.45.11,6.67a9.66,9.66,0,0,1-1.15,4.86,4.92,4.92,0,0,1-4.14,2.65,3.15,3.15,0,0,1-2.8-3.86A4.14,4.14,0,0,1,23,22.25c1.45-.24,3.53-.2,4.74.76.5.4,1.22-.31.71-.7Z" transform="translate(0)"/><path class="cls-1" d="M9.63,2.27A50.11,50.11,0,0,0,27.09,1c.62-.15.36-1.12-.27-1A49.28,49.28,0,0,1,9.63,1.27c-.64-.08-.63.92,0,1Z" transform="translate(0)"/></g></g></svg>