<svg xmlns="http://www.w3.org/2000/svg" viewBox="0 0 14.19 32.55"><defs><style>.cls-1{fill:#231f20;}</style></defs><g id="Layer_2" data-name="Layer 2"><g id="Layer_1-2" data-name="Layer 1"><path class="cls-1" d="M.69,7.85c2.12,3.27,6.23,5,9.89,3.29a6.25,6.25,0,0,0,3.42-4,6,6,0,0,0-.95-5.06C10.65-1,5.89-.33,3.36,2.23.17,5.45,0,10.22,0,14.48c.05,5.87.12,11.73.18,17.6a.5.5,0,0,0,1,0L1.05,18.67C1,16.46,1,14.23,1,12a17.62,17.62,0,0,1,1-5.93C3.31,2.93,6.43.16,10,1.21s4.09,5.66,1.59,8a6.09,6.09,0,0,1-5.3,1.49A7.59,7.59,0,0,1,1.56,7.35c-.35-.54-1.22,0-.87.5Z" transform="translate(0 -0.01)"/></g></g></svg>