<svg xmlns="http://www.w3.org/2000/svg" viewBox="0 0 10.99 31.34"><defs><style>.cls-1{fill:#231f20;}</style></defs><g id="Layer_2" data-name="Layer 2"><g id="Layer_1-2" data-name="Layer 1"><path class="cls-1" d="M10.2,20.8a8.57,8.57,0,0,0-8.58,2.7A7.46,7.46,0,0,0,.51,25.33a3.34,3.34,0,0,0-.39,2.4,5.64,5.64,0,0,0,2.4,3,6.42,6.42,0,0,0,4.72.33,5.21,5.21,0,0,0,3.25-3.18,10.71,10.71,0,0,0,.22-5.81c-.37-2.2-.8-4.41-1.22-6.61Q8,7.89,6.41.36c-.14-.63-1.1-.36-1,.26Q6.7,6.41,7.84,12.21c.37,1.86.73,3.71,1.07,5.57s.8,3.86,1,5.8a7.23,7.23,0,0,1-.9,5,4.47,4.47,0,0,1-3.81,1.8A3.74,3.74,0,0,1,1.8,28.7a5,5,0,0,1-.75-1.33A3.73,3.73,0,0,1,1.77,25a7.46,7.46,0,0,1,8.16-3.26c.63.15.9-.82.27-1Z" transform="translate(-0.01)"/></g></g></svg>