<svg xmlns="http://www.w3.org/2000/svg" viewBox="0 0 7.31 29.28"><defs><style>.cls-1{fill:#231f20;}</style></defs><g id="Layer_2" data-name="Layer 2"><g id="Layer_1-2" data-name="Layer 1"><path class="cls-1" d="M.7.74,4.33,6.86c.58,1,1.18,2,1.75,3,.08.14.31.36.2.51s-.49.11-.61.14a3.91,3.91,0,0,0-1.09.42A4.68,4.68,0,0,0,2.14,14.7a2.09,2.09,0,0,0,1.08,2c1,.64,2.1,1.2,3.15,1.79l.12-.91a7.78,7.78,0,0,0-6.34,5.6,4.1,4.1,0,0,0,1.14,4.07,10.1,10.1,0,0,0,3.69,2c.6.22.87-.75.26-1a9.36,9.36,0,0,1-3.12-1.61A3.23,3.23,0,0,1,1.24,23a6.87,6.87,0,0,1,5.52-4.48c.43-.06.46-.72.11-.91-1-.57-2-1.12-3-1.7a1.22,1.22,0,0,1-.74-1.24,3.48,3.48,0,0,1,.24-1.06,3.8,3.8,0,0,1,1.7-1.9c.6-.32,1.49-.25,2-.75.64-.66,0-1.49-.36-2.1L5,6,1.56.24A.5.5,0,0,0,.7.74Z" transform="translate(-0.02)"/></g></g></svg>