<svg xmlns="http://www.w3.org/2000/svg" viewBox="0 0 12.97 27.8"><defs><style>.cls-1{fill:#231f20;}</style></defs><g id="Layer_2" data-name="Layer 2"><g id="Layer_1-2" data-name="Layer 1"><g id="note_3"><path class="cls-1" d="M.64,9.16A10.61,10.61,0,0,0,8.9,9.3S15.3,6.56,10.66,2C8.49-.15,4.51.32,2.57,2.67S.66,6.27.64,9.16"/><path class="cls-1" d="M.32,9.7c3.55,1.64,8.54,1.39,11.37-1.59A4.36,4.36,0,0,0,13,5.55a4.65,4.65,0,0,0-1.23-3.32A5.74,5.74,0,0,0,8.11.08,6.76,6.76,0,0,0,3.92.79,7.69,7.69,0,0,0,.7,4.4,11.82,11.82,0,0,0,0,9.16a.63.63,0,0,0,1.25,0,12.23,12.23,0,0,1,.37-3.72,6.81,6.81,0,0,1,2.07-3,5.06,5.06,0,0,1,6.51,0,4.17,4.17,0,0,1,1.51,2.81,2.92,2.92,0,0,1-.83,1.9A7.28,7.28,0,0,1,8.58,8.77c.19-.09,0,0-.13,0L7.91,9a11.11,11.11,0,0,1-1.71.38A9.56,9.56,0,0,1,1,8.62C.23,8.29-.41,9.36.32,9.7Z"/></g><path class="cls-1" d="M0,9.45c0,5.92.23,11.83.2,17.74a.63.63,0,0,0,1.25,0c0-5.91-.23-11.82-.2-17.74A.63.63,0,0,0,0,9.45Z"/></g></g></svg>