<svg xmlns="http://www.w3.org/2000/svg" viewBox="0 0 13.01 29.27"><defs><style>.cls-1{fill:#231f20;}</style></defs><g id="Layer_2" data-name="Layer 2"><g id="Layer_1-2" data-name="Layer 1"><g id="note_3"><path class="cls-1" d="M12.31,20.13A10.61,10.61,0,0,0,4.05,20s-6.4,2.74-1.76,7.31c2.17,2.14,6.15,1.66,8.09-.68s1.95-5.38,2-8.27c0-4.52-.24-13.23-.21-17.75"/><path class="cls-1" d="M12.63,19.59a11,11,0,0,0-9.25,0c-2.2,1.13-4.16,3.38-3.07,6A6.25,6.25,0,0,0,9.81,28C13.49,25.28,13,19.77,13,15.72c0-5-.22-10.08-.19-15.12a.63.63,0,0,0-1.25,0c0,3.52.07,7,.13,10.55s.4,7.44-.14,11c-.31,2.08-1.14,4.19-3.08,5.23A5,5,0,0,1,3,27.08c-1.15-.94-2.19-2.55-1.51-4A5.1,5.1,0,0,1,3.57,21,9.54,9.54,0,0,1,12,20.67c.73.32,1.37-.76.64-1.08Z"/></g></g></g></svg>