<svg xmlns="http://www.w3.org/2000/svg" viewBox="0 0 28.59 30.55"><defs><style>.cls-1{fill:#231f20;}</style></defs><g id="Layer_2" data-name="Layer 2"><g id="Layer_1-2" data-name="Layer 1"><path class="cls-1" d="M10.28,23.86c.25-1.52-.37-3.63-2-3.94a4.73,4.73,0,0,0-2.75.28,7.62,7.62,0,0,0-4.39,3.44,3.5,3.5,0,0,0-.46,3c.79,1.93,4,3.68,5.84,2.55a9.16,9.16,0,0,0,3.76-5.34c.65-2.21-.46-4.7-.49-7L9.63,1.77" transform="translate(0)"/><path class="cls-1" d="M10.76,24c.29-2-.49-4.28-2.68-4.6A7.83,7.83,0,0,0,1.56,22.2,5.75,5.75,0,0,0,0,25.64a3.79,3.79,0,0,0,1.41,2.82c1.51,1.37,3.87,2.22,5.69,1a9.49,9.49,0,0,0,3.83-6.31,14.45,14.45,0,0,0-.41-4.24,25.87,25.87,0,0,1-.25-4.4l-.06-5.14-.08-7.56a.5.5,0,0,0-1,0l.1,8.89,0,5.05a21.54,21.54,0,0,0,.35,3.85,9.69,9.69,0,0,1,.24,3.86,9.4,9.4,0,0,1-1.36,3.13A6.37,6.37,0,0,1,6,28.91c-1.68.68-4-.78-4.78-2.26-.68-1.33.27-2.9,1.16-3.88a7.25,7.25,0,0,1,3.27-2.09c1.06-.32,2.49-.7,3.38.2a3.55,3.55,0,0,1,.76,2.85c-.1.62.87.9,1,.26Z" transform="translate(0)"/><path class="cls-1" d="M28.07,22.66c-1.42-1.18-5.11-1.31-6.73-.42A4.75,4.75,0,0,0,19,26.9a3.68,3.68,0,0,0,1.78,2.78,3.83,3.83,0,0,0,3.11.1c2.75-1,4.16-4.19,4.2-7.12a82.2,82.2,0,0,0-.21-8.74C27.05,5.22,27,5,27,.5" transform="translate(0)"/><path class="cls-1" d="M28.42,22.31a6.87,6.87,0,0,0-4.55-1.14,5.36,5.36,0,0,0-4.31,2,5.09,5.09,0,0,0-.7,5.14,3.92,3.92,0,0,0,4.76,2.11A6.46,6.46,0,0,0,27.54,27a12.62,12.62,0,0,0,1.05-5.76c0-2.56,0-5.1-.26-7.65-.18-1.93-.37-3.85-.55-5.78-.22-2.43-.33-4.84-.32-7.27a.5.5,0,0,0-1,0c0,1.81,0,3.62.16,5.43.25,3.15.66,6.29.85,9.45.14,2.22.13,4.45.11,6.67a9.66,9.66,0,0,1-1.15,4.86,4.92,4.92,0,0,1-4.14,2.65,3.15,3.15,0,0,1-2.8-3.86A4.14,4.14,0,0,1,23,22.25c1.45-.24,3.53-.2,4.74.76.5.4,1.22-.31.71-.7Z" transform="translate(0)"/><path class="cls-1" d="M9.63,2.27A50.11,50.11,0,0,0,27.09,1c.62-.15.36-1.12-.27-1A49.28,49.28,0,0,1,9.63,1.27c-.64-.08-.63.92,0,1Z" transform="translate(0)"/><path class="cls-1" d="M10.24,6.66c5-.74,10.22-.26,15.27-1,.64-.09.37-1.06-.26-1C20.2,5.44,15,5,10,5.69c-.63.09-.36,1.06.27,1Z" transform="translate(0)"/></g></g></svg>